<svg xmlns="http://www.w3.org/2000/svg" xmlns:xlink="http://www.w3.org/1999/xlink" width="1080" zoomAndPan="magnify" viewBox="0 0 810 809.999993" height="1080" preserveAspectRatio="xMidYMid meet" version="1.0"><defs><g/><clipPath id="d6aacf2a5a"><path d="M 285 253 L 525 253 L 525 438.769531 L 285 438.769531 Z M 285 253 " clip-rule="nonzero"/></clipPath></defs><g clip-path="url(#d6aacf2a5a)"><path fill="#6257e3" d="M 515.699219 316.707031 C 515.996094 316.253906 516.277344 315.792969 516.542969 315.324219 C 516.808594 314.851562 517.0625 314.375 517.300781 313.886719 C 517.535156 313.402344 517.757812 312.910156 517.964844 312.410156 C 518.171875 311.910156 518.363281 311.402344 518.539062 310.890625 C 518.710938 310.382812 518.871094 309.863281 519.015625 309.34375 C 519.160156 308.820312 519.285156 308.296875 519.394531 307.765625 C 519.507812 307.238281 519.601562 306.707031 519.679688 306.171875 C 519.757812 305.636719 519.816406 305.097656 519.863281 304.558594 C 519.90625 304.019531 519.933594 303.480469 519.945312 302.941406 C 519.957031 302.398438 519.953125 301.859375 519.929688 301.320312 C 519.90625 300.777344 519.867188 300.238281 519.8125 299.703125 C 519.757812 299.164062 519.683594 298.628906 519.59375 298.09375 C 519.507812 297.5625 519.402344 297.03125 519.277344 296.503906 C 519.15625 295.976562 519.019531 295.457031 518.863281 294.9375 C 518.710938 294.417969 518.539062 293.90625 518.355469 293.398438 C 518.167969 292.890625 517.96875 292.390625 517.75 291.894531 C 517.535156 291.398438 517.300781 290.910156 517.054688 290.429688 C 516.808594 289.949219 516.546875 289.476562 516.269531 289.011719 C 515.992188 288.546875 515.703125 288.089844 515.398438 287.644531 C 515.09375 287.195312 514.773438 286.761719 514.441406 286.332031 C 514.109375 285.90625 513.765625 285.488281 513.410156 285.082031 C 513.050781 284.679688 512.683594 284.285156 512.300781 283.902344 C 511.917969 283.519531 511.523438 283.148438 511.121094 282.789062 C 510.714844 282.429688 510.300781 282.085938 509.871094 281.753906 C 509.445312 281.421875 509.011719 281.101562 508.5625 280.796875 C 508.117188 280.488281 507.664062 280.199219 507.199219 279.921875 C 506.734375 279.644531 506.261719 279.378906 505.78125 279.132812 C 505.300781 278.882812 504.816406 278.652344 504.320312 278.433594 C 503.824219 278.214844 503.324219 278.011719 502.816406 277.824219 C 502.308594 277.636719 501.796875 277.46875 501.277344 277.3125 C 500.761719 277.15625 500.238281 277.015625 499.710938 276.894531 C 499.183594 276.773438 498.65625 276.664062 498.121094 276.574219 C 498.054688 275.019531 497.78125 273.503906 497.300781 272.023438 C 496.824219 270.542969 496.160156 269.152344 495.304688 267.855469 C 494.453125 266.554688 493.441406 265.390625 492.277344 264.359375 C 491.109375 263.332031 489.828125 262.476562 488.429688 261.796875 C 487.03125 261.113281 485.566406 260.628906 484.039062 260.34375 C 482.511719 260.054688 480.972656 259.976562 479.421875 260.101562 C 477.871094 260.230469 476.367188 260.5625 474.90625 261.09375 C 473.445312 261.628906 472.082031 262.347656 470.8125 263.25 C 470.511719 262.851562 470.199219 262.460938 469.871094 262.082031 C 469.546875 261.703125 469.207031 261.335938 468.859375 260.976562 C 468.511719 260.617188 468.152344 260.269531 467.785156 259.929688 C 467.414062 259.59375 467.035156 259.269531 466.648438 258.953125 C 466.257812 258.640625 465.863281 258.335938 465.453125 258.046875 C 465.046875 257.753906 464.632812 257.476562 464.207031 257.210938 C 463.785156 256.945312 463.355469 256.695312 462.914062 256.453125 C 462.476562 256.214844 462.03125 255.988281 461.578125 255.773438 C 461.125 255.5625 460.667969 255.363281 460.203125 255.179688 C 459.738281 254.992188 459.269531 254.820312 458.792969 254.664062 C 458.320312 254.507812 457.839844 254.367188 457.355469 254.238281 C 456.875 254.109375 456.386719 253.996094 455.898438 253.898438 C 455.40625 253.796875 454.914062 253.714844 454.417969 253.644531 C 453.921875 253.574219 453.425781 253.523438 452.929688 253.484375 C 452.429688 253.441406 451.929688 253.417969 451.429688 253.410156 C 450.929688 253.402344 450.429688 253.40625 449.929688 253.425781 C 449.433594 253.449219 448.933594 253.484375 448.4375 253.535156 C 447.9375 253.585938 447.441406 253.652344 446.949219 253.730469 C 446.457031 253.8125 445.964844 253.910156 445.476562 254.019531 C 444.988281 254.128906 444.507812 254.253906 444.027344 254.394531 C 443.546875 254.53125 443.070312 254.6875 442.597656 254.855469 C 442.128906 255.023438 441.664062 255.203125 441.203125 255.398438 C 440.742188 255.597656 440.289062 255.804688 439.839844 256.027344 C 439.394531 256.253906 438.953125 256.488281 438.519531 256.738281 C 438.085938 256.988281 437.664062 257.25 437.246094 257.527344 C 436.828125 257.800781 436.417969 258.089844 436.019531 258.390625 C 435.621094 258.691406 435.230469 259 434.847656 259.324219 C 434.464844 259.648438 434.09375 259.984375 433.734375 260.328125 C 433.371094 260.675781 433.023438 261.03125 432.683594 261.398438 C 432.34375 261.765625 432.015625 262.140625 431.699219 262.527344 C 431.382812 262.914062 431.074219 263.3125 430.78125 263.714844 C 430.488281 264.121094 430.210938 264.535156 429.941406 264.957031 C 427.15625 264.949219 424.410156 265.277344 421.707031 265.945312 C 419.003906 266.609375 416.421875 267.597656 413.960938 268.902344 C 412.109375 269.820312 410.367188 270.914062 408.734375 272.179688 C 407.101562 273.445312 405.613281 274.859375 404.261719 276.421875 C 402.910156 277.984375 401.726562 279.667969 400.710938 281.464844 C 399.695312 283.265625 398.867188 285.144531 398.226562 287.109375 C 387.859375 272.722656 375.449219 262.984375 361.976562 258.738281 C 358.515625 257.667969 354.984375 256.953125 351.378906 256.585938 C 347.777344 256.21875 344.171875 256.214844 340.566406 256.566406 C 336.964844 256.917969 333.429688 257.621094 329.964844 258.675781 C 326.5 259.730469 323.171875 261.117188 319.984375 262.832031 C 316.589844 264.648438 313.378906 266.742188 310.347656 269.113281 C 307.316406 271.484375 304.511719 274.097656 301.929688 276.953125 C 299.351562 279.808594 297.035156 282.867188 294.984375 286.121094 C 292.933594 289.378906 291.175781 292.785156 289.710938 296.34375 C 288.148438 300.070312 286.980469 303.914062 286.203125 307.878906 C 285.425781 311.839844 285.058594 315.84375 285.097656 319.878906 C 285.136719 323.917969 285.585938 327.914062 286.441406 331.859375 C 287.296875 335.808594 288.539062 339.628906 290.175781 343.320312 C 302.074219 370.078125 335.449219 392.746094 367.722656 414.675781 C 378.632812 422.089844 388.941406 429.082031 398.378906 436.195312 C 398.476562 436.269531 398.578125 436.339844 398.6875 436.402344 C 399.324219 436.777344 399.980469 437.109375 400.660156 437.40625 C 401.335938 437.699219 402.027344 437.953125 402.738281 438.164062 C 403.445312 438.375 404.164062 438.539062 404.890625 438.664062 C 405.617188 438.789062 406.351562 438.867188 407.089844 438.898438 C 407.828125 438.933594 408.5625 438.921875 409.300781 438.867188 C 410.035156 438.8125 410.765625 438.714844 411.492188 438.570312 C 412.214844 438.425781 412.929688 438.238281 413.628906 438.007812 C 414.332031 437.777344 415.015625 437.503906 415.683594 437.191406 C 416.351562 436.875 417 436.523438 417.625 436.128906 C 418.25 435.738281 418.851562 435.308594 419.421875 434.84375 C 419.996094 434.378906 420.539062 433.878906 421.054688 433.347656 C 421.566406 432.816406 422.042969 432.257812 422.488281 431.667969 C 422.933594 431.078125 423.339844 430.460938 423.710938 429.824219 C 424.082031 429.183594 424.410156 428.523438 424.699219 427.847656 C 424.992188 427.167969 425.238281 426.472656 425.445312 425.761719 C 425.648438 425.054688 425.8125 424.335938 425.929688 423.605469 C 426.78125 423.671875 427.632812 423.707031 428.488281 423.707031 C 430.226562 423.707031 431.953125 423.574219 433.671875 423.3125 C 435.386719 423.046875 437.078125 422.65625 438.734375 422.132812 C 440.390625 421.609375 442 420.964844 443.558594 420.199219 C 445.117188 419.429688 446.609375 418.546875 448.035156 417.550781 C 449.457031 416.554688 450.796875 415.457031 452.054688 414.253906 C 453.308594 413.054688 454.464844 411.765625 455.523438 410.386719 C 456.582031 409.007812 457.53125 407.558594 458.367188 406.035156 C 459.203125 404.511719 459.921875 402.933594 460.515625 401.300781 C 461.261719 401.582031 462.027344 401.804688 462.808594 401.972656 C 463.589844 402.140625 464.378906 402.246094 465.175781 402.292969 C 465.972656 402.339844 466.769531 402.324219 467.5625 402.25 C 468.359375 402.175781 469.144531 402.042969 469.917969 401.847656 C 470.695312 401.65625 471.449219 401.40625 472.1875 401.097656 C 472.921875 400.789062 473.632812 400.425781 474.316406 400.011719 C 474.996094 399.597656 475.644531 399.132812 476.253906 398.617188 C 476.867188 398.101562 477.433594 397.546875 477.960938 396.945312 C 478.488281 396.34375 478.96875 395.710938 479.398438 395.035156 C 479.828125 394.363281 480.203125 393.660156 480.527344 392.933594 C 480.851562 392.203125 481.117188 391.453125 481.328125 390.679688 C 481.539062 389.910156 481.6875 389.128906 481.78125 388.335938 C 481.871094 387.542969 481.902344 386.746094 481.871094 385.949219 C 481.84375 385.148438 481.753906 384.359375 481.601562 383.574219 C 481.453125 382.789062 481.246094 382.019531 480.980469 381.269531 C 480.710938 380.515625 480.390625 379.785156 480.015625 379.082031 C 481.105469 378.84375 482.171875 378.519531 483.210938 378.109375 C 484.253906 377.699219 485.253906 377.207031 486.214844 376.636719 C 487.175781 376.066406 488.085938 375.425781 488.945312 374.707031 C 489.804688 373.992188 490.601562 373.214844 491.335938 372.371094 C 492.070312 371.527344 492.730469 370.628906 493.324219 369.679688 C 493.914062 368.730469 494.425781 367.742188 494.859375 366.710938 C 495.289062 365.679688 495.636719 364.621094 495.902344 363.535156 C 496.164062 362.449219 496.339844 361.347656 496.425781 360.234375 C 497.742188 360.398438 499.0625 360.453125 500.390625 360.40625 C 501.714844 360.359375 503.03125 360.207031 504.332031 359.949219 C 505.632812 359.691406 506.90625 359.328125 508.148438 358.867188 C 509.390625 358.40625 510.589844 357.847656 511.746094 357.195312 C 512.898438 356.542969 513.996094 355.800781 515.03125 354.972656 C 516.066406 354.140625 517.03125 353.234375 517.921875 352.253906 C 518.8125 351.269531 519.617188 350.222656 520.339844 349.109375 C 521.0625 348 521.695312 346.835938 522.230469 345.621094 C 522.769531 344.410156 523.207031 343.160156 523.542969 341.878906 C 523.878906 340.59375 524.113281 339.292969 524.242188 337.972656 C 524.371094 336.652344 524.394531 335.332031 524.3125 334.007812 C 524.230469 332.683594 524.042969 331.375 523.75 330.078125 C 523.457031 328.785156 523.0625 327.523438 522.570312 326.292969 C 522.074219 325.0625 521.488281 323.878906 520.804688 322.742188 C 520.117188 321.601562 519.347656 320.527344 518.492188 319.515625 C 517.636719 318.5 516.707031 317.5625 515.699219 316.695312 Z M 516.089844 343.265625 C 515.625 344.261719 515.078125 345.210938 514.441406 346.109375 C 513.804688 347.007812 513.09375 347.839844 512.308594 348.609375 C 511.523438 349.382812 510.675781 350.074219 509.765625 350.695312 C 508.855469 351.3125 507.898438 351.84375 506.894531 352.289062 C 505.886719 352.734375 504.851562 353.085938 503.78125 353.347656 C 502.710938 353.605469 501.628906 353.765625 500.53125 353.832031 C 499.433594 353.894531 498.339844 353.863281 497.246094 353.730469 C 496.152344 353.597656 495.082031 353.367188 494.03125 353.042969 C 493.769531 352.960938 493.496094 352.910156 493.222656 352.898438 C 492.945312 352.882812 492.671875 352.902344 492.402344 352.957031 C 492.128906 353.011719 491.871094 353.101562 491.621094 353.222656 C 491.371094 353.34375 491.140625 353.492188 490.929688 353.671875 C 490.71875 353.847656 490.535156 354.050781 490.375 354.277344 C 490.214844 354.5 490.085938 354.742188 489.984375 355 C 489.886719 355.257812 489.820312 355.527344 489.789062 355.800781 C 489.757812 356.074219 489.761719 356.351562 489.796875 356.625 C 489.871094 357.175781 489.917969 357.726562 489.925781 358.28125 C 489.9375 358.839844 489.917969 359.394531 489.867188 359.945312 C 489.8125 360.5 489.730469 361.046875 489.613281 361.589844 C 489.5 362.132812 489.351562 362.667969 489.175781 363.195312 C 488.996094 363.722656 488.789062 364.238281 488.554688 364.742188 C 488.316406 365.242188 488.054688 365.730469 487.761719 366.203125 C 487.46875 366.675781 487.148438 367.128906 486.804688 367.5625 C 486.457031 368 486.089844 368.414062 485.695312 368.808594 C 485.304688 369.199219 484.890625 369.570312 484.453125 369.914062 C 484.019531 370.257812 483.5625 370.578125 483.09375 370.871094 C 482.621094 371.164062 482.132812 371.429688 481.628906 371.664062 C 481.125 371.902344 480.613281 372.109375 480.085938 372.285156 C 479.558594 372.464844 479.023438 372.609375 478.480469 372.726562 C 477.9375 372.839844 477.386719 372.925781 476.835938 372.976562 C 476.28125 373.03125 475.726562 373.050781 475.171875 373.039062 C 474.617188 373.027344 474.0625 372.984375 473.511719 372.90625 C 473.144531 372.855469 472.777344 372.867188 472.414062 372.941406 C 472.050781 373.015625 471.707031 373.144531 471.390625 373.335938 C 471.070312 373.523438 470.789062 373.757812 470.550781 374.042969 C 470.3125 374.328125 470.125 374.644531 469.992188 374.988281 C 469.859375 375.335938 469.789062 375.695312 469.777344 376.066406 C 469.769531 376.4375 469.820312 376.800781 469.933594 377.15625 C 470.042969 377.507812 470.210938 377.835938 470.4375 378.132812 C 470.660156 378.429688 470.925781 378.679688 471.234375 378.886719 C 471.742188 379.230469 472.210938 379.625 472.640625 380.0625 C 473.070312 380.503906 473.453125 380.980469 473.789062 381.496094 C 474.125 382.011719 474.40625 382.554688 474.628906 383.128906 C 474.855469 383.699219 475.023438 384.289062 475.132812 384.894531 C 475.238281 385.5 475.285156 386.109375 475.273438 386.722656 C 475.257812 387.339844 475.183594 387.945312 475.046875 388.546875 C 474.910156 389.144531 474.71875 389.726562 474.464844 390.289062 C 474.214844 390.847656 473.910156 391.378906 473.550781 391.878906 C 473.195312 392.378906 472.789062 392.839844 472.339844 393.257812 C 471.890625 393.675781 471.402344 394.046875 470.878906 394.367188 C 470.355469 394.691406 469.804688 394.957031 469.226562 395.167969 C 468.648438 395.378906 468.058594 395.53125 467.449219 395.625 C 466.839844 395.71875 466.230469 395.75 465.617188 395.71875 C 465 395.691406 464.394531 395.601562 463.800781 395.449219 C 463.203125 395.300781 462.628906 395.09375 462.074219 394.828125 C 461.519531 394.558594 460.996094 394.242188 460.503906 393.871094 C 460.289062 393.707031 460.050781 393.570312 459.796875 393.460938 C 459.546875 393.355469 459.285156 393.277344 459.011719 393.238281 C 458.742188 393.195312 458.46875 393.1875 458.195312 393.214844 C 457.921875 393.242188 457.65625 393.300781 457.398438 393.394531 C 457.136719 393.488281 456.894531 393.613281 456.667969 393.769531 C 456.441406 393.921875 456.238281 394.101562 456.054688 394.308594 C 455.871094 394.515625 455.71875 394.738281 455.59375 394.984375 C 455.46875 395.230469 455.375 395.484375 455.3125 395.753906 C 455.078125 396.785156 454.785156 397.800781 454.433594 398.800781 C 454.078125 399.796875 453.671875 400.773438 453.203125 401.726562 C 452.738281 402.675781 452.222656 403.597656 451.648438 404.488281 C 451.078125 405.382812 450.457031 406.238281 449.785156 407.058594 C 449.117188 407.878906 448.402344 408.65625 447.640625 409.394531 C 446.878906 410.128906 446.078125 410.820312 445.238281 411.46875 C 444.398438 412.113281 443.523438 412.707031 442.617188 413.25 C 441.707031 413.792969 440.769531 414.285156 439.804688 414.71875 C 438.839844 415.15625 437.851562 415.535156 436.84375 415.855469 C 435.835938 416.179688 434.808594 416.441406 433.769531 416.644531 C 432.730469 416.847656 431.683594 416.992188 430.628906 417.074219 C 429.570312 417.160156 428.515625 417.179688 427.457031 417.140625 C 426.398438 417.101562 425.34375 417 424.296875 416.839844 C 423.25 416.679688 422.21875 416.460938 421.195312 416.179688 C 420.175781 415.898438 419.171875 415.5625 418.191406 415.164062 C 417.207031 414.769531 416.25 414.320312 415.320312 413.8125 C 414.9375 413.605469 414.53125 413.476562 414.097656 413.429688 C 413.664062 413.386719 413.238281 413.425781 412.820312 413.546875 C 412.40625 413.671875 412.027344 413.867188 411.6875 414.144531 C 411.347656 414.417969 411.074219 414.746094 410.867188 415.128906 C 410.660156 415.507812 410.53125 415.917969 410.488281 416.351562 C 410.441406 416.78125 410.480469 417.207031 410.601562 417.625 C 410.726562 418.042969 410.925781 418.421875 411.199219 418.761719 C 411.472656 419.097656 411.800781 419.371094 412.183594 419.582031 C 414.492188 420.835938 416.917969 421.8125 419.457031 422.503906 C 419.390625 422.9375 419.296875 423.363281 419.183594 423.78125 C 419.066406 424.203125 418.929688 424.617188 418.765625 425.019531 C 418.605469 425.425781 418.421875 425.820312 418.214844 426.203125 C 418.011719 426.589844 417.785156 426.960938 417.535156 427.320312 C 417.289062 427.679688 417.023438 428.023438 416.734375 428.351562 C 416.449219 428.679688 416.144531 428.992188 415.824219 429.289062 C 415.503906 429.582031 415.167969 429.859375 414.816406 430.117188 C 414.460938 430.375 414.097656 430.609375 413.71875 430.824219 C 413.339844 431.042969 412.949219 431.238281 412.550781 431.410156 C 412.148438 431.582031 411.742188 431.730469 411.324219 431.859375 C 410.90625 431.984375 410.484375 432.089844 410.054688 432.167969 C 409.625 432.246094 409.195312 432.300781 408.757812 432.332031 C 408.324219 432.363281 407.890625 432.371094 407.453125 432.351562 C 407.015625 432.335938 406.585938 432.292969 406.152344 432.226562 C 405.722656 432.160156 405.296875 432.070312 404.875 431.953125 C 404.453125 431.839844 404.042969 431.703125 403.636719 431.542969 L 403.636719 296.261719 C 403.636719 296.203125 403.636719 296.148438 403.636719 296.089844 C 403.617188 294.976562 403.679688 293.871094 403.820312 292.765625 C 403.960938 291.660156 404.179688 290.574219 404.480469 289.5 C 404.777344 288.429688 405.152344 287.382812 405.601562 286.363281 C 406.050781 285.347656 406.570312 284.367188 407.160156 283.421875 C 407.75 282.476562 408.40625 281.582031 409.125 280.734375 C 409.84375 279.882812 410.621094 279.089844 411.457031 278.355469 C 412.289062 277.617188 413.171875 276.945312 414.101562 276.335938 C 415.035156 275.722656 416.003906 275.183594 417.011719 274.714844 C 418.070312 274.128906 419.160156 273.617188 420.289062 273.1875 C 421.417969 272.753906 422.570312 272.40625 423.746094 272.140625 C 424.925781 271.875 426.117188 271.695312 427.320312 271.601562 C 428.523438 271.507812 429.730469 271.5 430.933594 271.578125 C 432.140625 271.65625 433.332031 271.820312 434.515625 272.070312 C 435.695312 272.320312 436.851562 272.652344 437.988281 273.070312 C 439.121094 273.484375 440.21875 273.980469 441.28125 274.554688 C 442.34375 275.128906 443.359375 275.773438 444.328125 276.496094 C 444.671875 276.777344 445.054688 276.980469 445.480469 277.105469 C 445.90625 277.230469 446.335938 277.269531 446.777344 277.21875 C 447.21875 277.167969 447.628906 277.035156 448.015625 276.820312 C 448.402344 276.605469 448.730469 276.320312 449.003906 275.972656 C 449.277344 275.621094 449.46875 275.234375 449.582031 274.804688 C 449.699219 274.378906 449.726562 273.945312 449.664062 273.507812 C 449.605469 273.066406 449.460938 272.65625 449.234375 272.277344 C 449.011719 271.894531 448.71875 271.574219 448.363281 271.3125 C 445.09375 268.765625 441.457031 266.972656 437.445312 265.933594 C 438.027344 265.296875 438.648438 264.703125 439.3125 264.15625 C 439.980469 263.605469 440.679688 263.109375 441.414062 262.660156 C 442.148438 262.207031 442.914062 261.8125 443.703125 261.472656 C 444.496094 261.128906 445.304688 260.84375 446.136719 260.617188 C 446.96875 260.390625 447.8125 260.21875 448.664062 260.113281 C 449.519531 260.003906 450.378906 259.953125 451.242188 259.964844 C 452.101562 259.976562 452.957031 260.050781 453.808594 260.183594 C 454.660156 260.316406 455.5 260.507812 456.324219 260.757812 C 457.148438 261.011719 457.953125 261.316406 458.730469 261.683594 C 459.511719 262.046875 460.265625 262.464844 460.988281 262.933594 C 461.710938 263.402344 462.394531 263.921875 463.042969 264.488281 C 463.695312 265.054688 464.300781 265.664062 464.863281 266.316406 C 465.425781 266.96875 465.941406 267.65625 466.40625 268.382812 C 466.875 269.105469 467.285156 269.859375 467.648438 270.644531 C 468.007812 271.425781 468.308594 272.230469 468.554688 273.058594 C 468.804688 273.882812 468.992188 274.722656 469.117188 275.574219 C 469.175781 275.960938 469.300781 276.328125 469.492188 276.671875 C 469.683594 277.015625 469.925781 277.316406 470.222656 277.574219 C 470.519531 277.828125 470.851562 278.027344 471.222656 278.164062 C 471.589844 278.300781 471.96875 278.371094 472.363281 278.371094 C 472.527344 278.371094 472.691406 278.359375 472.855469 278.335938 C 473.289062 278.269531 473.6875 278.125 474.0625 277.898438 C 474.433594 277.675781 474.75 277.386719 475.007812 277.035156 C 475.269531 276.6875 475.449219 276.300781 475.554688 275.875 C 475.660156 275.453125 475.679688 275.027344 475.613281 274.597656 C 475.328125 272.675781 474.820312 270.8125 474.097656 269.011719 C 474.9375 268.328125 475.863281 267.785156 476.871094 267.382812 C 477.878906 266.984375 478.921875 266.738281 480 266.652344 C 481.082031 266.566406 482.152344 266.644531 483.207031 266.882812 C 484.265625 267.121094 485.265625 267.511719 486.203125 268.050781 C 487.144531 268.59375 487.980469 269.261719 488.71875 270.058594 C 489.453125 270.851562 490.054688 271.738281 490.523438 272.71875 C 490.992188 273.695312 491.304688 274.71875 491.460938 275.792969 C 491.617188 276.867188 491.613281 277.9375 491.445312 279.007812 C 491.40625 279.238281 491.394531 279.46875 491.40625 279.699219 C 491.421875 279.929688 491.457031 280.160156 491.519531 280.382812 C 491.578125 280.605469 491.664062 280.820312 491.769531 281.027344 C 491.875 281.234375 492.003906 281.425781 492.148438 281.605469 C 492.296875 281.785156 492.460938 281.945312 492.644531 282.089844 C 492.824219 282.234375 493.019531 282.359375 493.226562 282.460938 C 493.433594 282.566406 493.652344 282.644531 493.875 282.703125 C 494.101562 282.757812 494.328125 282.792969 494.5625 282.800781 C 495.667969 282.84375 496.765625 282.976562 497.851562 283.207031 C 498.9375 283.4375 499.996094 283.753906 501.027344 284.164062 C 502.058594 284.570312 503.046875 285.066406 503.992188 285.640625 C 504.941406 286.21875 505.832031 286.871094 506.667969 287.597656 C 507.503906 288.328125 508.273438 289.121094 508.976562 289.980469 C 509.675781 290.839844 510.300781 291.753906 510.847656 292.71875 C 511.394531 293.683594 511.851562 294.6875 512.230469 295.730469 C 512.605469 296.773438 512.890625 297.839844 513.082031 298.933594 C 513.277344 300.027344 513.378906 301.125 513.382812 302.234375 C 513.390625 303.34375 513.304688 304.445312 513.125 305.539062 C 512.945312 306.632812 512.671875 307.707031 512.308594 308.753906 C 511.945312 309.800781 511.5 310.8125 510.964844 311.785156 C 510.429688 312.753906 509.816406 313.675781 509.125 314.542969 C 508.4375 315.410156 507.675781 316.214844 506.851562 316.953125 C 506.023438 317.691406 505.140625 318.355469 504.199219 318.945312 C 503.257812 319.53125 502.277344 320.035156 501.25 320.457031 C 501.121094 320.316406 500.992188 320.171875 500.863281 320.035156 C 500.453125 319.621094 500.007812 319.242188 499.53125 318.902344 C 499.054688 318.5625 498.550781 318.261719 498.023438 318.007812 C 497.496094 317.753906 496.949219 317.542969 496.386719 317.382812 C 495.824219 317.21875 495.25 317.105469 494.667969 317.039062 C 494.085938 316.976562 493.503906 316.960938 492.917969 316.996094 C 492.332031 317.027344 491.753906 317.113281 491.183594 317.246094 C 490.613281 317.378906 490.058594 317.558594 489.515625 317.785156 C 488.976562 318.011719 488.460938 318.28125 487.964844 318.597656 C 487.601562 318.832031 487.300781 319.128906 487.054688 319.484375 C 486.808594 319.839844 486.640625 320.226562 486.546875 320.648438 C 486.457031 321.070312 486.445312 321.496094 486.519531 321.921875 C 486.597656 322.347656 486.75 322.742188 486.980469 323.105469 C 487.210938 323.472656 487.5 323.78125 487.851562 324.03125 C 488.207031 324.28125 488.59375 324.453125 489.011719 324.550781 C 489.433594 324.648438 489.855469 324.664062 490.28125 324.59375 C 490.710938 324.527344 491.105469 324.378906 491.472656 324.152344 C 491.839844 323.921875 492.238281 323.753906 492.660156 323.65625 C 493.082031 323.5625 493.511719 323.535156 493.941406 323.585938 C 494.375 323.632812 494.785156 323.75 495.175781 323.9375 C 495.566406 324.128906 495.917969 324.375 496.222656 324.683594 C 496.53125 324.988281 496.777344 325.339844 496.964844 325.730469 C 497.152344 326.121094 497.269531 326.535156 497.316406 326.964844 C 497.363281 327.398438 497.339844 327.824219 497.242188 328.246094 C 497.144531 328.667969 496.976562 329.066406 496.746094 329.429688 C 496.511719 329.800781 496.359375 330.199219 496.285156 330.628906 C 496.210938 331.054688 496.222656 331.484375 496.316406 331.90625 C 496.414062 332.332031 496.585938 332.722656 496.839844 333.078125 C 497.089844 333.433594 497.398438 333.730469 497.765625 333.960938 C 498.136719 334.195312 498.535156 334.347656 498.964844 334.421875 C 499.390625 334.496094 499.820312 334.484375 500.242188 334.390625 C 500.667969 334.292969 501.058594 334.121094 501.414062 333.867188 C 501.769531 333.617188 502.066406 333.308594 502.296875 332.941406 C 502.90625 331.980469 503.347656 330.949219 503.617188 329.84375 C 503.886719 328.738281 503.972656 327.621094 503.875 326.488281 C 506.671875 325.332031 509.191406 323.738281 511.433594 321.707031 C 512.179688 322.355469 512.871094 323.058594 513.503906 323.816406 C 514.136719 324.574219 514.703125 325.378906 515.207031 326.226562 C 515.710938 327.078125 516.144531 327.964844 516.503906 328.882812 C 516.863281 329.800781 517.148438 330.746094 517.359375 331.710938 C 517.566406 332.675781 517.695312 333.652344 517.746094 334.640625 C 517.800781 335.625 517.769531 336.609375 517.664062 337.589844 C 517.554688 338.574219 517.371094 339.539062 517.105469 340.492188 C 516.84375 341.445312 516.503906 342.371094 516.089844 343.265625 Z M 472.035156 311.34375 C 471.875 311.75 471.644531 312.109375 471.34375 312.425781 C 471.042969 312.738281 470.691406 312.984375 470.292969 313.160156 C 469.894531 313.335938 469.480469 313.425781 469.042969 313.4375 C 468.609375 313.445312 468.1875 313.371094 467.78125 313.214844 C 464.414062 311.902344 461.324219 310.113281 458.511719 307.847656 C 455.695312 305.582031 453.289062 302.945312 451.289062 299.9375 C 450.183594 300.585938 449.042969 301.152344 447.859375 301.644531 C 446.679688 302.132812 445.472656 302.542969 444.238281 302.871094 C 443 303.199219 441.75 303.441406 440.480469 303.601562 C 439.210938 303.757812 437.9375 303.832031 436.660156 303.816406 C 435.378906 303.804688 434.109375 303.703125 432.84375 303.519531 C 431.578125 303.332031 430.332031 303.0625 429.101562 302.710938 C 427.875 302.355469 426.675781 301.921875 425.503906 301.40625 C 424.335938 300.890625 423.203125 300.296875 422.113281 299.628906 C 421.742188 299.398438 421.429688 299.109375 421.171875 298.753906 C 420.917969 298.402344 420.738281 298.015625 420.636719 297.589844 C 420.535156 297.164062 420.519531 296.738281 420.585938 296.304688 C 420.65625 295.875 420.804688 295.472656 421.035156 295.101562 C 421.261719 294.730469 421.554688 294.417969 421.90625 294.160156 C 422.261719 293.90625 422.648438 293.726562 423.074219 293.625 C 423.496094 293.523438 423.925781 293.507812 424.355469 293.578125 C 424.785156 293.648438 425.1875 293.796875 425.558594 294.023438 C 426.234375 294.4375 426.929688 294.8125 427.644531 295.152344 C 428.359375 295.488281 429.09375 295.785156 429.839844 296.042969 C 430.585938 296.300781 431.347656 296.519531 432.117188 296.695312 C 432.890625 296.871094 433.667969 297.003906 434.453125 297.09375 C 435.238281 297.1875 436.027344 297.234375 436.820312 297.242188 C 437.609375 297.246094 438.398438 297.207031 439.1875 297.128906 C 439.972656 297.050781 440.753906 296.925781 441.527344 296.761719 C 442.300781 296.597656 443.0625 296.390625 443.816406 296.144531 C 444.566406 295.894531 445.300781 295.609375 446.023438 295.28125 C 446.742188 294.953125 447.441406 294.589844 448.121094 294.1875 C 448.804688 293.78125 449.460938 293.34375 450.09375 292.871094 C 450.726562 292.394531 451.332031 291.886719 451.910156 291.347656 C 452.488281 290.808594 453.035156 290.238281 453.550781 289.636719 C 454.066406 289.039062 454.546875 288.410156 454.996094 287.761719 C 455.445312 287.109375 455.855469 286.433594 456.230469 285.738281 C 456.605469 285.039062 456.941406 284.324219 457.238281 283.59375 C 457.402344 283.1875 457.636719 282.832031 457.941406 282.523438 C 458.246094 282.210938 458.601562 281.972656 459.003906 281.800781 C 459.402344 281.632812 459.820312 281.546875 460.257812 281.542969 C 460.691406 281.539062 461.113281 281.621094 461.515625 281.78125 C 461.917969 281.945312 462.277344 282.179688 462.585938 282.488281 C 462.898438 282.792969 463.136719 283.144531 463.304688 283.546875 C 463.476562 283.949219 463.5625 284.367188 463.566406 284.800781 C 463.570312 285.238281 463.488281 285.65625 463.324219 286.058594 C 461.785156 289.859375 459.523438 293.167969 456.546875 295.988281 C 458.175781 298.507812 460.15625 300.714844 462.480469 302.609375 C 464.808594 304.507812 467.371094 306 470.164062 307.089844 C 470.570312 307.246094 470.933594 307.476562 471.246094 307.777344 C 471.5625 308.078125 471.808594 308.429688 471.984375 308.828125 C 472.160156 309.226562 472.25 309.644531 472.257812 310.082031 C 472.269531 310.515625 472.191406 310.9375 472.035156 311.34375 Z M 465.832031 350.960938 C 466 351.363281 466.085938 351.78125 466.085938 352.21875 C 466.089844 352.652344 466.007812 353.070312 465.84375 353.472656 C 465.675781 353.878906 465.441406 354.234375 465.132812 354.542969 C 464.828125 354.851562 464.472656 355.089844 464.070312 355.257812 C 463.019531 355.695312 462.035156 356.25 461.113281 356.914062 C 460.191406 357.582031 459.355469 358.34375 458.609375 359.203125 C 457.863281 360.0625 457.226562 360.996094 456.695312 362.003906 C 456.164062 363.011719 455.753906 364.0625 455.46875 365.164062 C 457.351562 365.132812 459.21875 365.3125 461.0625 365.703125 C 461.488281 365.792969 461.878906 365.960938 462.242188 366.210938 C 462.601562 366.457031 462.898438 366.761719 463.136719 367.125 C 463.375 367.492188 463.535156 367.886719 463.613281 368.316406 C 463.695312 368.746094 463.6875 369.171875 463.597656 369.597656 C 463.507812 370.023438 463.339844 370.417969 463.09375 370.777344 C 462.847656 371.136719 462.542969 371.4375 462.179688 371.675781 C 461.8125 371.910156 461.417969 372.070312 460.988281 372.152344 C 460.558594 372.230469 460.132812 372.226562 459.707031 372.136719 C 458.085938 371.792969 456.449219 371.671875 454.792969 371.769531 C 453.140625 371.867188 451.527344 372.179688 449.957031 372.710938 C 448.390625 373.238281 446.917969 373.964844 445.542969 374.890625 C 444.167969 375.8125 442.9375 376.902344 441.855469 378.15625 C 440.769531 379.410156 439.871094 380.785156 439.15625 382.277344 C 438.441406 383.773438 437.9375 385.335938 437.640625 386.964844 C 437.34375 388.59375 437.269531 390.234375 437.414062 391.886719 C 437.554688 393.535156 437.914062 395.136719 438.488281 396.691406 C 438.636719 397.101562 438.707031 397.523438 438.6875 397.960938 C 438.671875 398.398438 438.570312 398.8125 438.386719 399.210938 C 438.207031 399.605469 437.953125 399.953125 437.632812 400.246094 C 437.3125 400.542969 436.945312 400.765625 436.535156 400.917969 C 436.128906 401.070312 435.703125 401.136719 435.269531 401.117188 C 434.832031 401.101562 434.414062 401 434.019531 400.816406 C 433.625 400.632812 433.277344 400.378906 432.980469 400.058594 C 432.6875 399.738281 432.464844 399.375 432.3125 398.964844 C 432.019531 398.164062 431.765625 397.351562 431.550781 396.523438 C 431.339844 395.699219 431.171875 394.863281 431.042969 394.019531 C 430.914062 393.179688 430.832031 392.332031 430.792969 391.480469 C 430.75 390.628906 430.753906 389.777344 430.800781 388.925781 C 430.84375 388.074219 430.933594 387.226562 431.066406 386.382812 C 431.199219 385.539062 431.375 384.707031 431.589844 383.882812 C 431.808594 383.058594 432.066406 382.246094 432.367188 381.449219 C 432.664062 380.652344 433.003906 379.871094 433.386719 379.105469 C 433.765625 378.34375 434.183594 377.601562 434.636719 376.878906 C 435.09375 376.15625 435.582031 375.460938 436.109375 374.789062 C 436.632812 374.121094 437.191406 373.476562 437.785156 372.863281 C 438.375 372.25 438.996094 371.664062 439.648438 371.113281 C 440.300781 370.5625 440.976562 370.046875 441.679688 369.566406 C 442.382812 369.085938 443.109375 368.640625 443.859375 368.230469 C 444.605469 367.824219 445.375 367.453125 446.160156 367.125 C 446.945312 366.796875 447.746094 366.507812 448.5625 366.257812 C 448.796875 364.390625 449.269531 362.589844 449.980469 360.847656 C 450.691406 359.109375 451.613281 357.488281 452.75 355.992188 C 453.890625 354.496094 455.203125 353.171875 456.6875 352.019531 C 458.175781 350.871094 459.785156 349.933594 461.523438 349.210938 C 461.921875 349.039062 462.34375 348.953125 462.777344 348.949219 C 463.214844 348.945312 463.636719 349.027344 464.039062 349.191406 C 464.445312 349.355469 464.800781 349.589844 465.113281 349.898438 C 465.421875 350.203125 465.660156 350.558594 465.832031 350.960938 Z M 428.660156 365.644531 L 428.582031 365.644531 C 428.148438 365.632812 427.730469 365.539062 427.332031 365.363281 C 426.933594 365.1875 426.582031 364.941406 426.28125 364.628906 C 425.980469 364.3125 425.753906 363.953125 425.59375 363.546875 C 425.4375 363.140625 425.363281 362.71875 425.375 362.285156 C 425.386719 361.703125 425.371094 361.128906 425.328125 360.550781 C 425.28125 359.972656 425.207031 359.402344 425.105469 358.832031 C 425.003906 358.261719 424.871094 357.699219 424.710938 357.144531 C 424.550781 356.585938 424.363281 356.039062 424.148438 355.503906 C 423.933594 354.964844 423.691406 354.441406 423.425781 353.929688 C 423.15625 353.414062 422.863281 352.917969 422.542969 352.433594 C 422.226562 351.953125 421.882812 351.488281 421.519531 351.039062 C 421.152344 350.589844 420.765625 350.160156 420.355469 349.753906 C 419.945312 349.34375 419.519531 348.957031 419.070312 348.589844 C 418.621094 348.222656 418.15625 347.882812 417.671875 347.5625 C 417.191406 347.246094 416.691406 346.949219 416.179688 346.683594 C 415.667969 346.414062 415.140625 346.171875 414.605469 345.957031 C 414.066406 345.742188 413.519531 345.554688 412.964844 345.394531 C 412.410156 345.234375 411.847656 345.105469 411.277344 345 C 410.707031 344.898438 410.132812 344.824219 409.558594 344.78125 C 408.980469 344.734375 408.402344 344.71875 407.824219 344.734375 C 407.394531 344.738281 406.976562 344.660156 406.578125 344.5 C 406.175781 344.339844 405.820312 344.109375 405.511719 343.808594 C 405.203125 343.507812 404.960938 343.160156 404.785156 342.765625 C 404.613281 342.371094 404.523438 341.957031 404.511719 341.523438 C 404.503906 341.09375 404.574219 340.675781 404.730469 340.273438 C 404.882812 339.871094 405.105469 339.511719 405.402344 339.199219 C 405.699219 338.882812 406.042969 338.636719 406.433594 338.457031 C 406.828125 338.28125 407.238281 338.183594 407.667969 338.164062 C 410.363281 338.109375 412.992188 338.503906 415.554688 339.339844 C 417.613281 336.664062 420.046875 334.382812 422.855469 332.5 C 425.664062 330.621094 428.695312 329.238281 431.957031 328.351562 C 432.011719 325.878906 432.390625 323.460938 433.09375 321.089844 C 433.796875 318.722656 434.800781 316.488281 436.105469 314.390625 C 436.332031 314.007812 436.621094 313.679688 436.972656 313.414062 C 437.328125 313.148438 437.722656 312.960938 438.152344 312.855469 C 438.582031 312.746094 439.015625 312.726562 439.453125 312.796875 C 439.890625 312.867188 440.300781 313.015625 440.675781 313.25 C 441.054688 313.484375 441.371094 313.78125 441.628906 314.144531 C 441.882812 314.503906 442.058594 314.902344 442.15625 315.335938 C 442.25 315.769531 442.257812 316.203125 442.175781 316.640625 C 442.097656 317.074219 441.933594 317.480469 441.691406 317.847656 C 441.140625 318.730469 440.660156 319.648438 440.246094 320.605469 C 439.832031 321.558594 439.492188 322.539062 439.226562 323.542969 C 438.960938 324.546875 438.769531 325.566406 438.652344 326.597656 C 438.539062 327.632812 438.5 328.667969 438.539062 329.707031 C 438.578125 330.746094 438.695312 331.777344 438.886719 332.796875 C 439.082031 333.820312 439.347656 334.820312 439.691406 335.800781 C 440.03125 336.785156 440.445312 337.734375 440.929688 338.65625 C 441.410156 339.574219 441.960938 340.457031 442.574219 341.292969 C 442.859375 341.644531 443.058594 342.035156 443.183594 342.46875 C 443.304688 342.902344 443.335938 343.34375 443.277344 343.789062 C 443.21875 344.234375 443.074219 344.652344 442.84375 345.039062 C 442.613281 345.425781 442.316406 345.75 441.953125 346.015625 C 441.585938 346.28125 441.1875 346.460938 440.746094 346.5625 C 440.308594 346.660156 439.867188 346.671875 439.425781 346.589844 C 438.980469 346.507812 438.574219 346.34375 438.199219 346.09375 C 437.824219 345.84375 437.511719 345.53125 437.265625 345.152344 C 435.027344 342.082031 433.480469 338.695312 432.636719 334.988281 C 430.496094 335.675781 428.488281 336.636719 426.617188 337.878906 C 424.742188 339.121094 423.074219 340.589844 421.605469 342.292969 C 422.824219 343.121094 423.957031 344.054688 425 345.097656 C 426.132812 346.230469 427.136719 347.46875 428.019531 348.808594 C 428.902344 350.148438 429.640625 351.5625 430.238281 353.050781 C 430.835938 354.539062 431.277344 356.074219 431.566406 357.652344 C 431.851562 359.230469 431.980469 360.820312 431.945312 362.425781 C 431.9375 362.855469 431.847656 363.265625 431.675781 363.660156 C 431.503906 364.054688 431.265625 364.402344 430.957031 364.703125 C 430.652344 365.003906 430.300781 365.238281 429.902344 365.398438 C 429.503906 365.5625 429.089844 365.644531 428.660156 365.644531 Z M 428.660156 365.644531 " fill-opacity="1" fill-rule="nonzero"/></g><g fill="#6257e3" fill-opacity="1"><g transform="translate(108.858068, 540.885014)"><g><path d="M 33.703125 -1.828125 C 32.441406 -0.859375 30.835938 -0.1875 28.890625 0.1875 C 26.953125 0.570312 24.890625 0.765625 22.703125 0.765625 C 20.046875 0.765625 17.554688 0.3125 15.234375 -0.59375 C 12.921875 -1.5 10.898438 -2.878906 9.171875 -4.734375 C 7.441406 -6.597656 6.070312 -8.972656 5.0625 -11.859375 C 4.050781 -14.742188 3.546875 -18.164062 3.546875 -22.125 C 3.546875 -26.257812 4.101562 -29.769531 5.21875 -32.65625 C 6.332031 -35.539062 7.804688 -37.898438 9.640625 -39.734375 C 11.472656 -41.578125 13.523438 -42.914062 15.796875 -43.75 C 18.078125 -44.59375 20.398438 -45.015625 22.765625 -45.015625 C 25.296875 -45.015625 27.359375 -44.878906 28.953125 -44.609375 C 30.554688 -44.335938 31.929688 -43.96875 33.078125 -43.5 L 31.8125 -38.890625 C 29.78125 -39.859375 26.890625 -40.34375 23.140625 -40.34375 C 21.410156 -40.34375 19.703125 -40.023438 18.015625 -39.390625 C 16.335938 -38.765625 14.832031 -37.734375 13.5 -36.296875 C 12.175781 -34.859375 11.113281 -32.976562 10.3125 -30.65625 C 9.507812 -28.34375 9.109375 -25.5 9.109375 -22.125 C 9.109375 -19.09375 9.484375 -16.4375 10.234375 -14.15625 C 10.992188 -11.882812 12.035156 -9.988281 13.359375 -8.46875 C 14.691406 -6.957031 16.253906 -5.820312 18.046875 -5.0625 C 19.835938 -4.300781 21.789062 -3.921875 23.90625 -3.921875 C 25.800781 -3.921875 27.453125 -4.109375 28.859375 -4.484375 C 30.273438 -4.867188 31.46875 -5.351562 32.4375 -5.9375 Z M 33.703125 -1.828125 "/></g></g></g><g fill="#6257e3" fill-opacity="1"><g transform="translate(144.954953, 540.885014)"><g><path d="M 27.953125 -2.53125 C 26.679688 -1.519531 25.085938 -0.71875 23.171875 -0.125 C 21.253906 0.46875 19.222656 0.765625 17.078125 0.765625 C 14.671875 0.765625 12.582031 0.375 10.8125 -0.40625 C 9.039062 -1.1875 7.585938 -2.300781 6.453125 -3.75 C 5.316406 -5.207031 4.472656 -6.945312 3.921875 -8.96875 C 3.367188 -11 3.09375 -13.28125 3.09375 -15.8125 C 3.09375 -21.207031 4.296875 -25.316406 6.703125 -28.140625 C 9.109375 -30.960938 12.546875 -32.375 17.015625 -32.375 C 18.441406 -32.375 19.867188 -32.210938 21.296875 -31.890625 C 22.734375 -31.578125 24.019531 -30.976562 25.15625 -30.09375 C 26.300781 -29.207031 27.234375 -27.953125 27.953125 -26.328125 C 28.671875 -24.710938 29.03125 -22.578125 29.03125 -19.921875 C 29.03125 -18.523438 28.898438 -16.984375 28.640625 -15.296875 L 8.34375 -15.296875 C 8.34375 -13.441406 8.53125 -11.796875 8.90625 -10.359375 C 9.289062 -8.929688 9.882812 -7.722656 10.6875 -6.734375 C 11.488281 -5.742188 12.53125 -4.984375 13.8125 -4.453125 C 15.101562 -3.929688 16.675781 -3.671875 18.53125 -3.671875 C 19.957031 -3.671875 21.390625 -3.921875 22.828125 -4.421875 C 24.265625 -4.929688 25.335938 -5.523438 26.046875 -6.203125 Z M 17.078125 -27.953125 C 14.585938 -27.953125 12.59375 -27.296875 11.09375 -25.984375 C 9.601562 -24.679688 8.707031 -22.445312 8.40625 -19.28125 L 24.09375 -19.28125 C 24.09375 -22.488281 23.476562 -24.734375 22.25 -26.015625 C 21.03125 -27.304688 19.304688 -27.953125 17.078125 -27.953125 Z M 17.078125 -27.953125 "/></g></g></g><g fill="#6257e3" fill-opacity="1"><g transform="translate(177.069169, 540.885014)"><g><path d="M 19.796875 -26.75 C 18.523438 -27.164062 17.320312 -27.375 16.1875 -27.375 C 14.375 -27.375 12.941406 -26.878906 11.890625 -25.890625 C 10.835938 -24.898438 10.179688 -23.644531 9.921875 -22.125 L 9.921875 0 L 4.875 0 L 4.875 -31.609375 L 8.40625 -31.609375 L 9.359375 -27.765625 L 9.609375 -27.765625 C 10.410156 -29.191406 11.367188 -30.296875 12.484375 -31.078125 C 13.609375 -31.859375 15.03125 -32.25 16.75 -32.25 C 17.976562 -32.25 19.351562 -32.035156 20.875 -31.609375 Z M 19.796875 -26.75 "/></g></g></g><g fill="#6257e3" fill-opacity="1"><g transform="translate(198.562948, 540.885014)"><g><path d="M 27.953125 -2.53125 C 26.679688 -1.519531 25.085938 -0.71875 23.171875 -0.125 C 21.253906 0.46875 19.222656 0.765625 17.078125 0.765625 C 14.671875 0.765625 12.582031 0.375 10.8125 -0.40625 C 9.039062 -1.1875 7.585938 -2.300781 6.453125 -3.75 C 5.316406 -5.207031 4.472656 -6.945312 3.921875 -8.96875 C 3.367188 -11 3.09375 -13.28125 3.09375 -15.8125 C 3.09375 -21.207031 4.296875 -25.316406 6.703125 -28.140625 C 9.109375 -30.960938 12.546875 -32.375 17.015625 -32.375 C 18.441406 -32.375 19.867188 -32.210938 21.296875 -31.890625 C 22.734375 -31.578125 24.019531 -30.976562 25.15625 -30.09375 C 26.300781 -29.207031 27.234375 -27.953125 27.953125 -26.328125 C 28.671875 -24.710938 29.03125 -22.578125 29.03125 -19.921875 C 29.03125 -18.523438 28.898438 -16.984375 28.640625 -15.296875 L 8.34375 -15.296875 C 8.34375 -13.441406 8.53125 -11.796875 8.90625 -10.359375 C 9.289062 -8.929688 9.882812 -7.722656 10.6875 -6.734375 C 11.488281 -5.742188 12.53125 -4.984375 13.8125 -4.453125 C 15.101562 -3.929688 16.675781 -3.671875 18.53125 -3.671875 C 19.957031 -3.671875 21.390625 -3.921875 22.828125 -4.421875 C 24.265625 -4.929688 25.335938 -5.523438 26.046875 -6.203125 Z M 17.078125 -27.953125 C 14.585938 -27.953125 12.59375 -27.296875 11.09375 -25.984375 C 9.601562 -24.679688 8.707031 -22.445312 8.40625 -19.28125 L 24.09375 -19.28125 C 24.09375 -22.488281 23.476562 -24.734375 22.25 -26.015625 C 21.03125 -27.304688 19.304688 -27.953125 17.078125 -27.953125 Z M 17.078125 -27.953125 "/></g></g></g><g fill="#6257e3" fill-opacity="1"><g transform="translate(230.677164, 540.885014)"><g><path d="M 4.875 -44.265625 L 9.921875 -44.265625 L 9.921875 -28.515625 L 10.1875 -28.515625 C 11.15625 -29.742188 12.382812 -30.691406 13.875 -31.359375 C 15.375 -32.035156 17.007812 -32.375 18.78125 -32.375 C 22.875 -32.375 25.941406 -31.066406 27.984375 -28.453125 C 30.023438 -25.835938 31.046875 -21.789062 31.046875 -16.3125 C 31.046875 -10.789062 29.695312 -6.597656 27 -3.734375 C 24.300781 -0.867188 20.507812 0.5625 15.625 0.5625 C 13.257812 0.5625 11.117188 0.3125 9.203125 -0.1875 C 7.285156 -0.695312 5.84375 -1.242188 4.875 -1.828125 Z M 17.890625 -27.953125 C 15.785156 -27.953125 14.078125 -27.359375 12.765625 -26.171875 C 11.460938 -24.992188 10.515625 -23.332031 9.921875 -21.1875 L 9.921875 -5.25 C 10.722656 -4.78125 11.691406 -4.429688 12.828125 -4.203125 C 13.972656 -3.972656 15.15625 -3.859375 16.375 -3.859375 C 19.238281 -3.859375 21.523438 -4.867188 23.234375 -6.890625 C 24.941406 -8.910156 25.796875 -12.070312 25.796875 -16.375 C 25.796875 -18.019531 25.648438 -19.554688 25.359375 -20.984375 C 25.066406 -22.421875 24.601562 -23.644531 23.96875 -24.65625 C 23.332031 -25.664062 22.519531 -26.46875 21.53125 -27.0625 C 20.539062 -27.65625 19.328125 -27.953125 17.890625 -27.953125 Z M 17.890625 -27.953125 "/></g></g></g><g fill="#6257e3" fill-opacity="1"><g transform="translate(264.814341, 540.885014)"><g><path d="M 19.796875 -26.75 C 18.523438 -27.164062 17.320312 -27.375 16.1875 -27.375 C 14.375 -27.375 12.941406 -26.878906 11.890625 -25.890625 C 10.835938 -24.898438 10.179688 -23.644531 9.921875 -22.125 L 9.921875 0 L 4.875 0 L 4.875 -31.609375 L 8.40625 -31.609375 L 9.359375 -27.765625 L 9.609375 -27.765625 C 10.410156 -29.191406 11.367188 -30.296875 12.484375 -31.078125 C 13.609375 -31.859375 15.03125 -32.25 16.75 -32.25 C 17.976562 -32.25 19.351562 -32.035156 20.875 -31.609375 Z M 19.796875 -26.75 "/></g></g></g><g fill="#6257e3" fill-opacity="1"><g transform="translate(286.30812, 540.885014)"><g><path d="M 4.359375 -29.28125 C 5.960938 -30.25 7.828125 -30.960938 9.953125 -31.421875 C 12.085938 -31.890625 14.3125 -32.125 16.625 -32.125 C 18.820312 -32.125 20.582031 -31.828125 21.90625 -31.234375 C 23.238281 -30.648438 24.25 -29.878906 24.9375 -28.921875 C 25.632812 -27.972656 26.097656 -26.929688 26.328125 -25.796875 C 26.566406 -24.660156 26.6875 -23.523438 26.6875 -22.390625 C 26.6875 -19.859375 26.625 -17.390625 26.5 -14.984375 C 26.375 -12.578125 26.3125 -10.300781 26.3125 -8.15625 C 26.3125 -6.59375 26.375 -5.113281 26.5 -3.71875 C 26.625 -2.332031 26.851562 -1.050781 27.1875 0.125 L 23.453125 0.125 L 22.125 -4.296875 L 21.8125 -4.296875 C 21.4375 -3.710938 20.960938 -3.132812 20.390625 -2.5625 C 19.828125 -1.988281 19.144531 -1.476562 18.34375 -1.03125 C 17.539062 -0.59375 16.609375 -0.226562 15.546875 0.0625 C 14.492188 0.351562 13.296875 0.5 11.953125 0.5 C 10.597656 0.5 9.34375 0.289062 8.1875 -0.125 C 7.03125 -0.550781 6.03125 -1.148438 5.1875 -1.921875 C 4.34375 -2.703125 3.675781 -3.640625 3.1875 -4.734375 C 2.707031 -5.835938 2.46875 -7.082031 2.46875 -8.46875 C 2.46875 -10.320312 2.847656 -11.867188 3.609375 -13.109375 C 4.367188 -14.359375 5.429688 -15.351562 6.796875 -16.09375 C 8.171875 -16.832031 9.816406 -17.359375 11.734375 -17.671875 C 13.648438 -17.984375 15.765625 -18.140625 18.078125 -18.140625 C 18.671875 -18.140625 19.25 -18.140625 19.8125 -18.140625 C 20.382812 -18.140625 20.96875 -18.097656 21.5625 -18.015625 C 21.6875 -19.285156 21.75 -20.425781 21.75 -21.4375 C 21.75 -23.757812 21.285156 -25.382812 20.359375 -26.3125 C 19.429688 -27.238281 17.742188 -27.703125 15.296875 -27.703125 C 14.585938 -27.703125 13.820312 -27.644531 13 -27.53125 C 12.175781 -27.425781 11.332031 -27.28125 10.46875 -27.09375 C 9.601562 -26.90625 8.78125 -26.671875 8 -26.390625 C 7.21875 -26.117188 6.53125 -25.816406 5.9375 -25.484375 Z M 13.34375 -3.921875 C 14.519531 -3.921875 15.570312 -4.078125 16.5 -4.390625 C 17.425781 -4.710938 18.226562 -5.113281 18.90625 -5.59375 C 19.582031 -6.082031 20.140625 -6.617188 20.578125 -7.203125 C 21.023438 -7.796875 21.351562 -8.367188 21.5625 -8.921875 L 21.5625 -14.171875 C 20.96875 -14.210938 20.363281 -14.242188 19.75 -14.265625 C 19.144531 -14.285156 18.546875 -14.296875 17.953125 -14.296875 C 16.648438 -14.296875 15.375 -14.21875 14.125 -14.0625 C 12.882812 -13.914062 11.789062 -13.640625 10.84375 -13.234375 C 9.894531 -12.835938 9.132812 -12.289062 8.5625 -11.59375 C 8 -10.90625 7.71875 -10.035156 7.71875 -8.984375 C 7.71875 -7.503906 8.242188 -6.289062 9.296875 -5.34375 C 10.347656 -4.394531 11.695312 -3.921875 13.34375 -3.921875 Z M 13.34375 -3.921875 "/></g></g></g><g fill="#6257e3" fill-opacity="1"><g transform="translate(317.663726, 540.885014)"><g><path d="M 10.5 -7.78125 C 10.5 -6.300781 10.75 -5.242188 11.25 -4.609375 C 11.757812 -3.984375 12.476562 -3.671875 13.40625 -3.671875 C 13.957031 -3.671875 14.546875 -3.710938 15.171875 -3.796875 C 15.804688 -3.878906 16.523438 -4.066406 17.328125 -4.359375 L 17.890625 -0.375 C 17.222656 -0.0390625 16.285156 0.226562 15.078125 0.4375 C 13.878906 0.65625 12.835938 0.765625 11.953125 0.765625 C 10.054688 0.765625 8.492188 0.226562 7.265625 -0.84375 C 6.046875 -1.925781 5.4375 -3.753906 5.4375 -6.328125 L 5.4375 -44.265625 L 10.5 -44.265625 Z M 10.5 -7.78125 "/></g></g></g><g fill="#6257e3" fill-opacity="1"><g transform="translate(336.123065, 540.885014)"><g><path d="M 44.515625 10.8125 C 43.503906 11.101562 42.515625 11.300781 41.546875 11.40625 C 40.578125 11.519531 39.609375 11.578125 38.640625 11.578125 C 36.523438 11.578125 34.46875 11.351562 32.46875 10.90625 C 30.46875 10.46875 28.53125 9.984375 26.65625 9.453125 C 24.78125 8.921875 22.976562 8.429688 21.25 7.984375 C 19.519531 7.546875 17.875 7.328125 16.3125 7.328125 C 15.300781 7.328125 14.332031 7.457031 13.40625 7.71875 L 13.40625 3.09375 C 14 2.96875 14.566406 2.863281 15.109375 2.78125 C 15.660156 2.695312 16.234375 2.65625 16.828125 2.65625 C 18.585938 2.65625 20.34375 2.875 22.09375 3.3125 C 23.84375 3.757812 25.625 4.242188 27.4375 4.765625 C 29.25 5.296875 31.101562 5.78125 33 6.21875 C 34.90625 6.664062 36.910156 6.890625 39.015625 6.890625 C 40.867188 6.890625 42.703125 6.679688 44.515625 6.265625 Z M 3.546875 -22.125 C 3.546875 -29.507812 5.101562 -35.171875 8.21875 -39.109375 C 11.34375 -43.046875 15.789062 -45.015625 21.5625 -45.015625 C 24.6875 -45.015625 27.382812 -44.46875 29.65625 -43.375 C 31.9375 -42.28125 33.820312 -40.734375 35.3125 -38.734375 C 36.8125 -36.734375 37.921875 -34.328125 38.640625 -31.515625 C 39.359375 -28.710938 39.71875 -25.582031 39.71875 -22.125 C 39.71875 -14.75 38.144531 -9.085938 35 -5.140625 C 31.863281 -1.203125 27.382812 0.765625 21.5625 0.765625 C 18.488281 0.765625 15.820312 0.21875 13.5625 -0.875 C 11.3125 -1.976562 9.4375 -3.53125 7.9375 -5.53125 C 6.4375 -7.53125 5.328125 -9.929688 4.609375 -12.734375 C 3.898438 -15.546875 3.546875 -18.675781 3.546875 -22.125 Z M 9.109375 -22.125 C 9.109375 -19.6875 9.347656 -17.367188 9.828125 -15.171875 C 10.316406 -12.984375 11.066406 -11.054688 12.078125 -9.390625 C 13.085938 -7.722656 14.382812 -6.394531 15.96875 -5.40625 C 17.550781 -4.414062 19.414062 -3.921875 21.5625 -3.921875 C 25.476562 -3.921875 28.550781 -5.40625 30.78125 -8.375 C 33.019531 -11.351562 34.140625 -15.9375 34.140625 -22.125 C 34.140625 -24.53125 33.894531 -26.835938 33.40625 -29.046875 C 32.925781 -31.265625 32.171875 -33.207031 31.140625 -34.875 C 30.109375 -36.539062 28.800781 -37.867188 27.21875 -38.859375 C 25.632812 -39.847656 23.75 -40.34375 21.5625 -40.34375 C 17.6875 -40.34375 14.640625 -38.851562 12.421875 -35.875 C 10.210938 -32.90625 9.109375 -28.320312 9.109375 -22.125 Z M 9.109375 -22.125 "/></g></g></g><g fill="#6257e3" fill-opacity="1"><g transform="translate(379.363459, 540.885014)"><g><path d="M 9.421875 -31.609375 L 9.421875 -13.59375 C 9.421875 -11.945312 9.515625 -10.5 9.703125 -9.25 C 9.890625 -8.007812 10.210938 -6.976562 10.671875 -6.15625 C 11.140625 -5.34375 11.773438 -4.722656 12.578125 -4.296875 C 13.378906 -3.878906 14.394531 -3.671875 15.625 -3.671875 C 16.757812 -3.671875 17.769531 -3.847656 18.65625 -4.203125 C 19.539062 -4.566406 20.328125 -5.0625 21.015625 -5.6875 C 21.710938 -6.320312 22.328125 -7.050781 22.859375 -7.875 C 23.390625 -8.695312 23.820312 -9.570312 24.15625 -10.5 L 24.15625 -31.609375 L 29.21875 -31.609375 L 29.21875 -8.984375 C 29.21875 -7.460938 29.269531 -5.890625 29.375 -4.265625 C 29.476562 -2.640625 29.65625 -1.21875 29.90625 0 L 26.4375 0 L 25.171875 -5 L 24.84375 -5 C 23.875 -3.351562 22.566406 -1.976562 20.921875 -0.875 C 19.285156 0.21875 17.203125 0.765625 14.671875 0.765625 C 12.984375 0.765625 11.492188 0.5625 10.203125 0.15625 C 8.921875 -0.238281 7.847656 -0.941406 6.984375 -1.953125 C 6.117188 -2.972656 5.460938 -4.332031 5.015625 -6.03125 C 4.578125 -7.738281 4.359375 -9.898438 4.359375 -12.515625 L 4.359375 -31.609375 Z M 9.421875 -31.609375 "/></g></g></g><g fill="#6257e3" fill-opacity="1"><g transform="translate(413.437418, 540.885014)"><g><path d="M 3.09375 -15.8125 C 3.09375 -21.164062 4.285156 -25.265625 6.671875 -28.109375 C 9.054688 -30.953125 12.484375 -32.375 16.953125 -32.375 C 19.304688 -32.375 21.359375 -31.984375 23.109375 -31.203125 C 24.859375 -30.421875 26.300781 -29.300781 27.4375 -27.84375 C 28.582031 -26.394531 29.425781 -24.648438 29.96875 -22.609375 C 30.519531 -20.566406 30.796875 -18.300781 30.796875 -15.8125 C 30.796875 -10.457031 29.601562 -6.351562 27.21875 -3.5 C 24.84375 -0.65625 21.421875 0.765625 16.953125 0.765625 C 14.585938 0.765625 12.53125 0.375 10.78125 -0.40625 C 9.03125 -1.1875 7.585938 -2.300781 6.453125 -3.75 C 5.316406 -5.207031 4.472656 -6.957031 3.921875 -9 C 3.367188 -11.050781 3.09375 -13.320312 3.09375 -15.8125 Z M 8.34375 -15.8125 C 8.34375 -14.207031 8.5 -12.664062 8.8125 -11.1875 C 9.132812 -9.71875 9.628906 -8.429688 10.296875 -7.328125 C 10.972656 -6.234375 11.859375 -5.347656 12.953125 -4.671875 C 14.054688 -4.003906 15.390625 -3.671875 16.953125 -3.671875 C 22.679688 -3.628906 25.546875 -7.675781 25.546875 -15.8125 C 25.546875 -17.457031 25.382812 -19.015625 25.0625 -20.484375 C 24.75 -21.960938 24.253906 -23.25 23.578125 -24.34375 C 22.910156 -25.4375 22.023438 -26.3125 20.921875 -26.96875 C 19.828125 -27.625 18.503906 -27.953125 16.953125 -27.953125 C 11.210938 -27.992188 8.34375 -23.945312 8.34375 -15.8125 Z M 8.34375 -15.8125 "/></g></g></g><g fill="#6257e3" fill-opacity="1"><g transform="translate(447.321724, 540.885014)"><g><path d="M 0.703125 -31.609375 L 5.625 -31.609375 L 5.625 -37.875 L 10.6875 -39.328125 L 10.6875 -31.609375 L 19.28125 -31.609375 L 19.28125 -27.1875 L 10.6875 -27.1875 L 10.6875 -9.671875 C 10.6875 -7.484375 10.957031 -5.9375 11.5 -5.03125 C 12.050781 -4.125 12.984375 -3.671875 14.296875 -3.671875 C 15.390625 -3.671875 16.316406 -3.785156 17.078125 -4.015625 C 17.835938 -4.242188 18.679688 -4.550781 19.609375 -4.9375 L 20.734375 -1.078125 C 19.597656 -0.523438 18.351562 -0.0820312 17 0.25 C 15.65625 0.59375 14.203125 0.765625 12.640625 0.765625 C 10.078125 0.765625 8.265625 0.0351562 7.203125 -1.421875 C 6.148438 -2.878906 5.625 -5.3125 5.625 -8.71875 L 5.625 -27.1875 L 0.703125 -27.1875 Z M 0.703125 -31.609375 "/></g></g></g><g fill="#6257e3" fill-opacity="1"><g transform="translate(468.752286, 540.885014)"><g><path d="M 5.9375 -31.609375 L 11 -31.609375 L 11 0 L 5.9375 0 Z M 4.875 -41.234375 C 4.875 -42.203125 5.195312 -43.03125 5.84375 -43.71875 C 6.5 -44.414062 7.332031 -44.765625 8.34375 -44.765625 C 9.351562 -44.765625 10.21875 -44.414062 10.9375 -43.71875 C 11.65625 -43.03125 12.015625 -42.203125 12.015625 -41.234375 C 12.015625 -40.265625 11.65625 -39.460938 10.9375 -38.828125 C 10.21875 -38.191406 9.351562 -37.875 8.34375 -37.875 C 7.332031 -37.875 6.5 -38.191406 5.84375 -38.828125 C 5.195312 -39.460938 4.875 -40.265625 4.875 -41.234375 Z M 4.875 -41.234375 "/></g></g></g><g fill="#6257e3" fill-opacity="1"><g transform="translate(485.694439, 540.885014)"><g><path d="M 27.953125 -2.53125 C 26.679688 -1.519531 25.085938 -0.71875 23.171875 -0.125 C 21.253906 0.46875 19.222656 0.765625 17.078125 0.765625 C 14.671875 0.765625 12.582031 0.375 10.8125 -0.40625 C 9.039062 -1.1875 7.585938 -2.300781 6.453125 -3.75 C 5.316406 -5.207031 4.472656 -6.945312 3.921875 -8.96875 C 3.367188 -11 3.09375 -13.28125 3.09375 -15.8125 C 3.09375 -21.207031 4.296875 -25.316406 6.703125 -28.140625 C 9.109375 -30.960938 12.546875 -32.375 17.015625 -32.375 C 18.441406 -32.375 19.867188 -32.210938 21.296875 -31.890625 C 22.734375 -31.578125 24.019531 -30.976562 25.15625 -30.09375 C 26.300781 -29.207031 27.234375 -27.953125 27.953125 -26.328125 C 28.671875 -24.710938 29.03125 -22.578125 29.03125 -19.921875 C 29.03125 -18.523438 28.898438 -16.984375 28.640625 -15.296875 L 8.34375 -15.296875 C 8.34375 -13.441406 8.53125 -11.796875 8.90625 -10.359375 C 9.289062 -8.929688 9.882812 -7.722656 10.6875 -6.734375 C 11.488281 -5.742188 12.53125 -4.984375 13.8125 -4.453125 C 15.101562 -3.929688 16.675781 -3.671875 18.53125 -3.671875 C 19.957031 -3.671875 21.390625 -3.921875 22.828125 -4.421875 C 24.265625 -4.929688 25.335938 -5.523438 26.046875 -6.203125 Z M 17.078125 -27.953125 C 14.585938 -27.953125 12.59375 -27.296875 11.09375 -25.984375 C 9.601562 -24.679688 8.707031 -22.445312 8.40625 -19.28125 L 24.09375 -19.28125 C 24.09375 -22.488281 23.476562 -24.734375 22.25 -26.015625 C 21.03125 -27.304688 19.304688 -27.953125 17.078125 -27.953125 Z M 17.078125 -27.953125 "/></g></g></g><g fill="#6257e3" fill-opacity="1"><g transform="translate(517.808656, 540.885014)"><g><path d="M 25.171875 0 L 25.171875 -18.015625 C 25.171875 -21.304688 24.695312 -23.785156 23.75 -25.453125 C 22.800781 -27.117188 21.0625 -27.953125 18.53125 -27.953125 C 16.289062 -27.953125 14.441406 -27.347656 12.984375 -26.140625 C 11.535156 -24.941406 10.515625 -23.4375 9.921875 -21.625 L 9.921875 0 L 4.875 0 L 4.875 -31.609375 L 8.40625 -31.609375 L 9.359375 -27.765625 L 9.609375 -27.765625 C 10.617188 -29.109375 11.976562 -30.210938 13.6875 -31.078125 C 15.394531 -31.941406 17.429688 -32.375 19.796875 -32.375 C 21.523438 -32.375 23.039062 -32.171875 24.34375 -31.765625 C 25.65625 -31.367188 26.738281 -30.664062 27.59375 -29.65625 C 28.457031 -28.644531 29.109375 -27.285156 29.546875 -25.578125 C 29.992188 -23.867188 30.21875 -21.707031 30.21875 -19.09375 L 30.21875 0 Z M 25.171875 0 "/></g></g></g><g fill="#6257e3" fill-opacity="1"><g transform="translate(552.38832, 540.885014)"><g><path d="M 0.703125 -31.609375 L 5.625 -31.609375 L 5.625 -37.875 L 10.6875 -39.328125 L 10.6875 -31.609375 L 19.28125 -31.609375 L 19.28125 -27.1875 L 10.6875 -27.1875 L 10.6875 -9.671875 C 10.6875 -7.484375 10.957031 -5.9375 11.5 -5.03125 C 12.050781 -4.125 12.984375 -3.671875 14.296875 -3.671875 C 15.390625 -3.671875 16.316406 -3.785156 17.078125 -4.015625 C 17.835938 -4.242188 18.679688 -4.550781 19.609375 -4.9375 L 20.734375 -1.078125 C 19.597656 -0.523438 18.351562 -0.0820312 17 0.25 C 15.65625 0.59375 14.203125 0.765625 12.640625 0.765625 C 10.078125 0.765625 8.265625 0.0351562 7.203125 -1.421875 C 6.148438 -2.878906 5.625 -5.3125 5.625 -8.71875 L 5.625 -27.1875 L 0.703125 -27.1875 Z M 0.703125 -31.609375 "/></g></g></g><g fill="#6257e3" fill-opacity="1"><g transform="translate(573.818881, 540.885014)"><g><path d="M 3.09375 -2.90625 C 3.09375 -4.039062 3.421875 -4.9375 4.078125 -5.59375 C 4.734375 -6.25 5.609375 -6.578125 6.703125 -6.578125 C 7.835938 -6.578125 8.742188 -6.25 9.421875 -5.59375 C 10.097656 -4.9375 10.4375 -4.039062 10.4375 -2.90625 C 10.4375 -1.8125 10.097656 -0.925781 9.421875 -0.25 C 8.742188 0.425781 7.835938 0.765625 6.703125 0.765625 C 5.609375 0.765625 4.734375 0.425781 4.078125 -0.25 C 3.421875 -0.925781 3.09375 -1.8125 3.09375 -2.90625 Z M 3.09375 -2.90625 "/></g></g></g><g fill="#6257e3" fill-opacity="1"><g transform="translate(587.347324, 540.885014)"><g><path d="M 26.4375 -2.09375 C 25.164062 -1.164062 23.664062 -0.457031 21.9375 0.03125 C 20.207031 0.519531 18.394531 0.765625 16.5 0.765625 C 14.0625 0.765625 12 0.375 10.3125 -0.40625 C 8.625 -1.1875 7.238281 -2.300781 6.15625 -3.75 C 5.082031 -5.207031 4.300781 -6.957031 3.8125 -9 C 3.332031 -11.050781 3.09375 -13.320312 3.09375 -15.8125 C 3.09375 -21.164062 4.273438 -25.265625 6.640625 -28.109375 C 9.003906 -30.953125 12.398438 -32.375 16.828125 -32.375 C 18.847656 -32.375 20.5625 -32.210938 21.96875 -31.890625 C 23.382812 -31.578125 24.660156 -31.128906 25.796875 -30.546875 L 24.34375 -26.171875 C 23.375 -26.722656 22.296875 -27.15625 21.109375 -27.46875 C 19.929688 -27.789062 18.671875 -27.953125 17.328125 -27.953125 C 11.335938 -27.953125 8.34375 -23.90625 8.34375 -15.8125 C 8.34375 -14.207031 8.5 -12.675781 8.8125 -11.21875 C 9.132812 -9.769531 9.664062 -8.484375 10.40625 -7.359375 C 11.144531 -6.242188 12.113281 -5.347656 13.3125 -4.671875 C 14.507812 -4.003906 15.992188 -3.671875 17.765625 -3.671875 C 19.285156 -3.671875 20.644531 -3.898438 21.84375 -4.359375 C 23.050781 -4.828125 24.03125 -5.351562 24.78125 -5.9375 Z M 26.4375 -2.09375 "/></g></g></g><g fill="#6257e3" fill-opacity="1"><g transform="translate(615.858177, 540.885014)"><g><path d="M 3.09375 -15.8125 C 3.09375 -21.164062 4.285156 -25.265625 6.671875 -28.109375 C 9.054688 -30.953125 12.484375 -32.375 16.953125 -32.375 C 19.304688 -32.375 21.359375 -31.984375 23.109375 -31.203125 C 24.859375 -30.421875 26.300781 -29.300781 27.4375 -27.84375 C 28.582031 -26.394531 29.425781 -24.648438 29.96875 -22.609375 C 30.519531 -20.566406 30.796875 -18.300781 30.796875 -15.8125 C 30.796875 -10.457031 29.601562 -6.351562 27.21875 -3.5 C 24.84375 -0.65625 21.421875 0.765625 16.953125 0.765625 C 14.585938 0.765625 12.53125 0.375 10.78125 -0.40625 C 9.03125 -1.1875 7.585938 -2.300781 6.453125 -3.75 C 5.316406 -5.207031 4.472656 -6.957031 3.921875 -9 C 3.367188 -11.050781 3.09375 -13.320312 3.09375 -15.8125 Z M 8.34375 -15.8125 C 8.34375 -14.207031 8.5 -12.664062 8.8125 -11.1875 C 9.132812 -9.71875 9.628906 -8.429688 10.296875 -7.328125 C 10.972656 -6.234375 11.859375 -5.347656 12.953125 -4.671875 C 14.054688 -4.003906 15.390625 -3.671875 16.953125 -3.671875 C 22.679688 -3.628906 25.546875 -7.675781 25.546875 -15.8125 C 25.546875 -17.457031 25.382812 -19.015625 25.0625 -20.484375 C 24.75 -21.960938 24.253906 -23.25 23.578125 -24.34375 C 22.910156 -25.4375 22.023438 -26.3125 20.921875 -26.96875 C 19.828125 -27.625 18.503906 -27.953125 16.953125 -27.953125 C 11.210938 -27.992188 8.34375 -23.945312 8.34375 -15.8125 Z M 8.34375 -15.8125 "/></g></g></g><g fill="#6257e3" fill-opacity="1"><g transform="translate(649.742483, 540.885014)"><g><path d="M 23.390625 0 L 23.390625 -17.890625 C 23.390625 -19.578125 23.316406 -21.039062 23.171875 -22.28125 C 23.023438 -23.53125 22.738281 -24.578125 22.3125 -25.421875 C 21.894531 -26.265625 21.296875 -26.894531 20.515625 -27.3125 C 19.734375 -27.738281 18.710938 -27.953125 17.453125 -27.953125 C 15.515625 -27.953125 13.898438 -27.359375 12.609375 -26.171875 C 11.328125 -24.992188 10.429688 -23.519531 9.921875 -21.75 L 9.921875 0 L 4.875 0 L 4.875 -31.609375 L 8.40625 -31.609375 L 9.359375 -27.765625 L 9.609375 -27.765625 C 10.742188 -29.109375 12.0625 -30.210938 13.5625 -31.078125 C 15.0625 -31.941406 17.007812 -32.375 19.40625 -32.375 C 21.4375 -32.375 23.09375 -31.984375 24.375 -31.203125 C 25.664062 -30.421875 26.664062 -29.0625 27.375 -27.125 C 28.34375 -28.769531 29.679688 -30.054688 31.390625 -30.984375 C 33.097656 -31.910156 35.03125 -32.375 37.1875 -32.375 C 38.957031 -32.375 40.453125 -32.171875 41.671875 -31.765625 C 42.890625 -31.367188 43.898438 -30.664062 44.703125 -29.65625 C 45.503906 -28.644531 46.082031 -27.273438 46.4375 -25.546875 C 46.800781 -23.816406 46.984375 -21.625 46.984375 -18.96875 L 46.984375 0 L 41.921875 0 L 41.921875 -19.03125 C 41.921875 -20.550781 41.847656 -21.867188 41.703125 -22.984375 C 41.554688 -24.097656 41.257812 -25.023438 40.8125 -25.765625 C 40.375 -26.503906 39.765625 -27.050781 38.984375 -27.40625 C 38.203125 -27.769531 37.179688 -27.953125 35.921875 -27.953125 C 33.804688 -27.953125 32.160156 -27.359375 30.984375 -26.171875 C 29.804688 -24.992188 28.960938 -23.3125 28.453125 -21.125 L 28.453125 0 Z M 23.390625 0 "/></g></g></g></svg>