<svg xmlns="http://www.w3.org/2000/svg" xmlns:xlink="http://www.w3.org/1999/xlink" width="1080" zoomAndPan="magnify" viewBox="0 0 810 809.999993" height="1080" preserveAspectRatio="xMidYMid meet" version="1.0"><defs><g/></defs><path fill="#ffffff" d="M 515.730469 316.699219 C 516.027344 316.246094 516.308594 315.785156 516.574219 315.316406 C 516.839844 314.84375 517.09375 314.367188 517.328125 313.878906 C 517.566406 313.394531 517.789062 312.902344 517.996094 312.402344 C 518.203125 311.902344 518.390625 311.394531 518.566406 310.882812 C 518.742188 310.371094 518.902344 309.855469 519.046875 309.335938 C 519.1875 308.8125 519.316406 308.289062 519.425781 307.757812 C 519.539062 307.230469 519.632812 306.695312 519.710938 306.160156 C 519.789062 305.625 519.847656 305.089844 519.894531 304.550781 C 519.9375 304.011719 519.964844 303.472656 519.976562 302.929688 C 519.988281 302.390625 519.980469 301.851562 519.960938 301.308594 C 519.9375 300.769531 519.898438 300.230469 519.84375 299.691406 C 519.785156 299.152344 519.714844 298.617188 519.625 298.085938 C 519.535156 297.550781 519.429688 297.023438 519.308594 296.496094 C 519.1875 295.96875 519.050781 295.445312 518.894531 294.925781 C 518.742188 294.410156 518.570312 293.894531 518.386719 293.386719 C 518.199219 292.878906 517.996094 292.378906 517.78125 291.882812 C 517.5625 291.386719 517.332031 290.898438 517.085938 290.417969 C 516.835938 289.9375 516.574219 289.464844 516.300781 289 C 516.023438 288.535156 515.730469 288.078125 515.425781 287.632812 C 515.121094 287.183594 514.804688 286.75 514.472656 286.320312 C 514.140625 285.894531 513.796875 285.476562 513.4375 285.074219 C 513.082031 284.667969 512.710938 284.273438 512.328125 283.890625 C 511.945312 283.507812 511.554688 283.136719 511.148438 282.777344 C 510.742188 282.417969 510.328125 282.074219 509.902344 281.742188 C 509.476562 281.40625 509.039062 281.089844 508.59375 280.785156 C 508.148438 280.476562 507.691406 280.1875 507.226562 279.910156 C 506.765625 279.632812 506.292969 279.367188 505.8125 279.121094 C 505.332031 278.871094 504.84375 278.636719 504.347656 278.421875 C 503.851562 278.203125 503.351562 278 502.84375 277.8125 C 502.335938 277.625 501.824219 277.453125 501.304688 277.300781 C 500.789062 277.144531 500.265625 277.003906 499.738281 276.882812 C 499.214844 276.757812 498.683594 276.652344 498.148438 276.5625 C 498.082031 275.007812 497.808594 273.492188 497.328125 272.011719 C 496.851562 270.53125 496.1875 269.140625 495.332031 267.839844 C 494.480469 266.539062 493.46875 265.375 492.300781 264.347656 C 491.136719 263.320312 489.851562 262.464844 488.453125 261.78125 C 487.058594 261.097656 485.59375 260.613281 484.066406 260.328125 C 482.535156 260.039062 480.996094 259.960938 479.445312 260.085938 C 477.898438 260.214844 476.390625 260.546875 474.929688 261.082031 C 473.46875 261.613281 472.105469 262.332031 470.839844 263.234375 C 470.535156 262.835938 470.222656 262.449219 469.894531 262.070312 C 469.570312 261.6875 469.230469 261.320312 468.882812 260.960938 C 468.535156 260.601562 468.175781 260.253906 467.808594 259.917969 C 467.4375 259.578125 467.058594 259.253906 466.671875 258.9375 C 466.28125 258.625 465.886719 258.320312 465.476562 258.03125 C 465.070312 257.742188 464.65625 257.460938 464.230469 257.195312 C 463.808594 256.929688 463.378906 256.679688 462.9375 256.4375 C 462.5 256.199219 462.054688 255.972656 461.601562 255.761719 C 461.148438 255.546875 460.691406 255.347656 460.226562 255.164062 C 459.761719 254.976562 459.292969 254.804688 458.816406 254.648438 C 458.339844 254.492188 457.863281 254.351562 457.378906 254.222656 C 456.894531 254.09375 456.410156 253.980469 455.917969 253.882812 C 455.429688 253.78125 454.9375 253.699219 454.441406 253.628906 C 453.945312 253.558594 453.449219 253.507812 452.949219 253.46875 C 452.453125 253.425781 451.953125 253.402344 451.453125 253.394531 C 450.953125 253.386719 450.453125 253.390625 449.953125 253.410156 C 449.453125 253.433594 448.953125 253.46875 448.457031 253.519531 C 447.960938 253.570312 447.464844 253.636719 446.96875 253.714844 C 446.476562 253.796875 445.984375 253.894531 445.5 254.003906 C 445.011719 254.113281 444.527344 254.238281 444.046875 254.378906 C 443.566406 254.515625 443.089844 254.671875 442.621094 254.839844 C 442.148438 255.007812 441.683594 255.1875 441.222656 255.386719 C 440.761719 255.582031 440.308594 255.789062 439.863281 256.015625 C 439.414062 256.238281 438.972656 256.472656 438.539062 256.722656 C 438.109375 256.972656 437.683594 257.234375 437.265625 257.511719 C 436.847656 257.785156 436.4375 258.074219 436.039062 258.375 C 435.640625 258.675781 435.25 258.988281 434.867188 259.308594 C 434.484375 259.632812 434.113281 259.96875 433.753906 260.3125 C 433.390625 260.660156 433.042969 261.015625 432.703125 261.382812 C 432.363281 261.75 432.035156 262.128906 431.71875 262.515625 C 431.398438 262.902344 431.09375 263.296875 430.800781 263.703125 C 430.507812 264.105469 430.226562 264.519531 429.960938 264.941406 C 427.175781 264.933594 424.429688 265.261719 421.726562 265.929688 C 419.019531 266.597656 416.4375 267.582031 413.976562 268.886719 C 412.125 269.804688 410.382812 270.898438 408.75 272.164062 C 407.117188 273.429688 405.628906 274.847656 404.277344 276.410156 C 402.925781 277.972656 401.742188 279.652344 400.726562 281.453125 C 399.710938 283.253906 398.882812 285.132812 398.242188 287.097656 C 387.875 272.710938 375.460938 262.96875 361.984375 258.722656 C 358.523438 257.652344 354.992188 256.9375 351.386719 256.570312 C 347.785156 256.203125 344.179688 256.199219 340.574219 256.550781 C 336.96875 256.902344 333.433594 257.605469 329.96875 258.660156 C 326.503906 259.714844 323.175781 261.101562 319.988281 262.816406 C 316.59375 264.632812 313.382812 266.726562 310.351562 269.101562 C 307.320312 271.472656 304.511719 274.085938 301.933594 276.941406 C 299.351562 279.796875 297.035156 282.855469 294.984375 286.109375 C 292.933594 289.367188 291.175781 292.773438 289.710938 296.335938 C 288.152344 300.058594 286.980469 303.90625 286.203125 307.867188 C 285.425781 311.832031 285.058594 315.835938 285.097656 319.875 C 285.136719 323.914062 285.585938 327.90625 286.441406 331.855469 C 287.296875 335.800781 288.539062 339.621094 290.175781 343.316406 C 302.078125 370.078125 335.457031 392.75 367.734375 414.679688 C 378.644531 422.09375 388.953125 429.085938 398.390625 436.203125 C 398.492188 436.277344 398.59375 436.347656 398.703125 436.410156 C 399.339844 436.785156 399.996094 437.121094 400.675781 437.414062 C 401.351562 437.707031 402.042969 437.960938 402.753906 438.171875 C 403.460938 438.382812 404.179688 438.550781 404.90625 438.671875 C 405.632812 438.796875 406.367188 438.875 407.105469 438.910156 C 407.84375 438.941406 408.582031 438.933594 409.316406 438.875 C 410.054688 438.820312 410.785156 438.722656 411.507812 438.578125 C 412.230469 438.433594 412.945312 438.246094 413.648438 438.015625 C 414.347656 437.785156 415.035156 437.511719 415.703125 437.199219 C 416.371094 436.882812 417.015625 436.53125 417.644531 436.136719 C 418.269531 435.746094 418.867188 435.316406 419.441406 434.851562 C 420.015625 434.386719 420.558594 433.886719 421.070312 433.355469 C 421.582031 432.824219 422.0625 432.261719 422.507812 431.671875 C 422.953125 431.085938 423.359375 430.46875 423.730469 429.832031 C 424.097656 429.191406 424.429688 428.53125 424.71875 427.851562 C 425.007812 427.171875 425.257812 426.480469 425.460938 425.769531 C 425.667969 425.0625 425.832031 424.339844 425.949219 423.613281 C 426.800781 423.675781 427.652344 423.710938 428.507812 423.710938 C 430.242188 423.714844 431.972656 423.582031 433.691406 423.316406 C 435.40625 423.054688 437.097656 422.660156 438.753906 422.140625 C 440.410156 421.617188 442.019531 420.972656 443.578125 420.203125 C 445.140625 419.4375 446.628906 418.554688 448.054688 417.558594 C 449.480469 416.558594 450.820312 415.460938 452.074219 414.261719 C 453.332031 413.058594 454.488281 411.769531 455.546875 410.390625 C 456.605469 409.011719 457.554688 407.5625 458.390625 406.039062 C 459.226562 404.515625 459.945312 402.9375 460.539062 401.300781 C 461.285156 401.585938 462.050781 401.808594 462.832031 401.976562 C 463.613281 402.140625 464.402344 402.25 465.199219 402.296875 C 465.996094 402.34375 466.792969 402.328125 467.589844 402.253906 C 468.382812 402.179688 469.167969 402.046875 469.941406 401.851562 C 470.71875 401.660156 471.472656 401.410156 472.210938 401.101562 C 472.949219 400.792969 473.65625 400.429688 474.339844 400.015625 C 475.019531 399.597656 475.667969 399.132812 476.28125 398.621094 C 476.890625 398.105469 477.460938 397.550781 477.988281 396.949219 C 478.515625 396.347656 478.992188 395.710938 479.421875 395.039062 C 479.851562 394.367188 480.230469 393.664062 480.554688 392.933594 C 480.878906 392.203125 481.144531 391.453125 481.355469 390.683594 C 481.5625 389.914062 481.714844 389.128906 481.804688 388.335938 C 481.894531 387.542969 481.925781 386.746094 481.898438 385.949219 C 481.867188 385.152344 481.777344 384.359375 481.628906 383.574219 C 481.480469 382.789062 481.269531 382.023438 481.003906 381.269531 C 480.738281 380.515625 480.414062 379.785156 480.039062 379.082031 C 481.132812 378.84375 482.199219 378.519531 483.238281 378.109375 C 484.277344 377.699219 485.277344 377.207031 486.242188 376.636719 C 487.203125 376.066406 488.113281 375.425781 488.972656 374.707031 C 489.832031 373.992188 490.628906 373.210938 491.363281 372.371094 C 492.097656 371.527344 492.757812 370.628906 493.347656 369.679688 C 493.941406 368.730469 494.453125 367.742188 494.886719 366.710938 C 495.316406 365.679688 495.664062 364.621094 495.929688 363.535156 C 496.191406 362.445312 496.367188 361.347656 496.453125 360.230469 C 497.769531 360.394531 499.09375 360.453125 500.417969 360.40625 C 501.742188 360.355469 503.058594 360.203125 504.359375 359.945312 C 505.660156 359.6875 506.933594 359.328125 508.175781 358.867188 C 509.421875 358.402344 510.621094 357.847656 511.773438 357.191406 C 512.929688 356.539062 514.023438 355.796875 515.058594 354.96875 C 516.097656 354.140625 517.058594 353.234375 517.949219 352.25 C 518.839844 351.265625 519.648438 350.21875 520.371094 349.105469 C 521.09375 347.996094 521.726562 346.832031 522.261719 345.617188 C 522.800781 344.40625 523.234375 343.15625 523.574219 341.875 C 523.910156 340.589844 524.144531 339.289062 524.273438 337.96875 C 524.402344 336.648438 524.425781 335.324219 524.34375 334 C 524.257812 332.675781 524.070312 331.367188 523.78125 330.074219 C 523.488281 328.78125 523.09375 327.515625 522.601562 326.285156 C 522.105469 325.054688 521.515625 323.871094 520.832031 322.734375 C 520.148438 321.597656 519.378906 320.519531 518.523438 319.507812 C 517.667969 318.492188 516.738281 317.554688 515.730469 316.691406 Z M 516.121094 343.261719 C 515.65625 344.257812 515.105469 345.207031 514.472656 346.105469 C 513.835938 347.003906 513.125 347.835938 512.339844 348.609375 C 511.554688 349.378906 510.707031 350.074219 509.796875 350.691406 C 508.886719 351.308594 507.929688 351.839844 506.921875 352.285156 C 505.917969 352.730469 504.878906 353.085938 503.808594 353.34375 C 502.742188 353.601562 501.65625 353.765625 500.558594 353.828125 C 499.460938 353.894531 498.367188 353.859375 497.273438 353.726562 C 496.179688 353.59375 495.109375 353.363281 494.058594 353.039062 C 493.792969 352.957031 493.523438 352.910156 493.25 352.894531 C 492.972656 352.878906 492.699219 352.902344 492.425781 352.957031 C 492.15625 353.011719 491.898438 353.097656 491.648438 353.21875 C 491.398438 353.339844 491.167969 353.488281 490.957031 353.667969 C 490.746094 353.847656 490.5625 354.046875 490.402344 354.273438 C 490.242188 354.5 490.109375 354.742188 490.011719 355 C 489.914062 355.257812 489.847656 355.523438 489.816406 355.796875 C 489.785156 356.074219 489.785156 356.347656 489.824219 356.621094 C 489.898438 357.171875 489.941406 357.726562 489.953125 358.28125 C 489.964844 358.835938 489.945312 359.390625 489.894531 359.945312 C 489.839844 360.496094 489.757812 361.046875 489.640625 361.589844 C 489.523438 362.132812 489.378906 362.667969 489.203125 363.195312 C 489.023438 363.722656 488.816406 364.234375 488.582031 364.738281 C 488.34375 365.242188 488.078125 365.730469 487.785156 366.203125 C 487.492188 366.675781 487.175781 367.128906 486.828125 367.5625 C 486.484375 368 486.113281 368.414062 485.722656 368.804688 C 485.328125 369.199219 484.914062 369.566406 484.480469 369.914062 C 484.042969 370.257812 483.589844 370.578125 483.117188 370.871094 C 482.644531 371.164062 482.15625 371.429688 481.65625 371.664062 C 481.152344 371.902344 480.636719 372.109375 480.109375 372.285156 C 479.582031 372.464844 479.046875 372.609375 478.503906 372.726562 C 477.960938 372.839844 477.414062 372.925781 476.859375 372.976562 C 476.304688 373.03125 475.753906 373.050781 475.195312 373.039062 C 474.640625 373.027344 474.085938 372.984375 473.539062 372.90625 C 473.167969 372.855469 472.804688 372.867188 472.4375 372.941406 C 472.074219 373.015625 471.734375 373.144531 471.414062 373.332031 C 471.09375 373.523438 470.8125 373.757812 470.574219 374.042969 C 470.335938 374.328125 470.148438 374.644531 470.015625 374.988281 C 469.882812 375.335938 469.8125 375.695312 469.800781 376.066406 C 469.792969 376.4375 469.84375 376.800781 469.957031 377.15625 C 470.070312 377.507812 470.238281 377.835938 470.460938 378.132812 C 470.683594 378.429688 470.949219 378.679688 471.257812 378.886719 C 471.765625 379.234375 472.234375 379.625 472.667969 380.066406 C 473.097656 380.503906 473.480469 380.980469 473.8125 381.496094 C 474.148438 382.011719 474.429688 382.558594 474.65625 383.128906 C 474.878906 383.703125 475.046875 384.289062 475.15625 384.894531 C 475.261719 385.5 475.308594 386.109375 475.296875 386.726562 C 475.28125 387.339844 475.207031 387.949219 475.070312 388.546875 C 474.9375 389.148438 474.742188 389.726562 474.492188 390.289062 C 474.238281 390.851562 473.933594 391.382812 473.574219 391.882812 C 473.21875 392.382812 472.8125 392.839844 472.363281 393.261719 C 471.914062 393.679688 471.425781 394.050781 470.902344 394.371094 C 470.378906 394.691406 469.828125 394.960938 469.25 395.171875 C 468.671875 395.382812 468.082031 395.535156 467.472656 395.628906 C 466.863281 395.722656 466.253906 395.753906 465.640625 395.722656 C 465.023438 395.695312 464.417969 395.605469 463.824219 395.453125 C 463.226562 395.300781 462.652344 395.09375 462.097656 394.828125 C 461.542969 394.5625 461.019531 394.246094 460.527344 393.875 C 460.308594 393.707031 460.074219 393.570312 459.820312 393.464844 C 459.570312 393.355469 459.304688 393.28125 459.035156 393.238281 C 458.761719 393.199219 458.492188 393.191406 458.21875 393.21875 C 457.945312 393.246094 457.675781 393.304688 457.417969 393.398438 C 457.160156 393.492188 456.917969 393.617188 456.691406 393.769531 C 456.464844 393.925781 456.257812 394.105469 456.078125 394.3125 C 455.894531 394.515625 455.742188 394.742188 455.617188 394.988281 C 455.492188 395.230469 455.398438 395.488281 455.335938 395.753906 C 455.101562 396.789062 454.804688 397.804688 454.453125 398.804688 C 454.101562 399.800781 453.691406 400.777344 453.226562 401.730469 C 452.761719 402.679688 452.242188 403.601562 451.671875 404.492188 C 451.097656 405.386719 450.476562 406.242188 449.808594 407.0625 C 449.136719 407.882812 448.421875 408.660156 447.660156 409.398438 C 446.902344 410.136719 446.101562 410.828125 445.261719 411.472656 C 444.421875 412.117188 443.546875 412.710938 442.636719 413.253906 C 441.726562 413.800781 440.789062 414.289062 439.824219 414.726562 C 438.859375 415.160156 437.871094 415.539062 436.863281 415.863281 C 435.855469 416.183594 434.828125 416.449219 433.789062 416.652344 C 432.75 416.855469 431.703125 417 430.648438 417.082031 C 429.589844 417.164062 428.535156 417.183594 427.476562 417.144531 C 426.417969 417.105469 425.363281 417.007812 424.316406 416.847656 C 423.269531 416.683594 422.234375 416.464844 421.214844 416.183594 C 420.191406 415.90625 419.191406 415.566406 418.207031 415.171875 C 417.226562 414.773438 416.269531 414.324219 415.335938 413.816406 C 414.957031 413.609375 414.546875 413.480469 414.113281 413.4375 C 413.679688 413.390625 413.257812 413.429688 412.839844 413.550781 C 412.421875 413.675781 412.042969 413.875 411.703125 414.148438 C 411.367188 414.421875 411.09375 414.75 410.882812 415.132812 C 410.675781 415.515625 410.546875 415.921875 410.503906 416.355469 C 410.457031 416.789062 410.496094 417.214844 410.617188 417.632812 C 410.742188 418.050781 410.941406 418.425781 411.214844 418.765625 C 411.488281 419.105469 411.816406 419.378906 412.199219 419.585938 C 414.511719 420.84375 416.9375 421.816406 419.476562 422.511719 C 419.40625 422.941406 419.316406 423.367188 419.199219 423.789062 C 419.085938 424.210938 418.945312 424.621094 418.785156 425.027344 C 418.625 425.433594 418.4375 425.828125 418.234375 426.210938 C 418.027344 426.59375 417.800781 426.96875 417.554688 427.328125 C 417.304688 427.683594 417.039062 428.027344 416.753906 428.359375 C 416.464844 428.6875 416.164062 429 415.839844 429.292969 C 415.519531 429.589844 415.183594 429.867188 414.832031 430.121094 C 414.480469 430.378906 414.113281 430.617188 413.734375 430.832031 C 413.355469 431.050781 412.96875 431.246094 412.566406 431.417969 C 412.167969 431.589844 411.757812 431.738281 411.339844 431.867188 C 410.921875 431.992188 410.5 432.097656 410.070312 432.175781 C 409.640625 432.253906 409.210938 432.308594 408.773438 432.339844 C 408.339844 432.371094 407.90625 432.378906 407.46875 432.359375 C 407.03125 432.34375 406.601562 432.300781 406.167969 432.234375 C 405.738281 432.167969 405.3125 432.078125 404.890625 431.960938 C 404.46875 431.847656 404.058594 431.710938 403.652344 431.550781 L 403.652344 296.253906 C 403.652344 296.195312 403.652344 296.136719 403.652344 296.082031 C 403.632812 294.96875 403.695312 293.859375 403.835938 292.753906 C 403.976562 291.652344 404.195312 290.5625 404.496094 289.488281 C 404.792969 288.417969 405.167969 287.371094 405.617188 286.351562 C 406.066406 285.335938 406.585938 284.355469 407.175781 283.410156 C 407.765625 282.464844 408.421875 281.570312 409.140625 280.722656 C 409.859375 279.871094 410.636719 279.078125 411.472656 278.339844 C 412.304688 277.605469 413.1875 276.929688 414.121094 276.320312 C 415.050781 275.710938 416.019531 275.171875 417.03125 274.703125 C 418.085938 274.113281 419.175781 273.605469 420.304688 273.171875 C 421.433594 272.742188 422.585938 272.394531 423.765625 272.128906 C 424.945312 271.863281 426.132812 271.683594 427.339844 271.589844 C 428.542969 271.492188 429.746094 271.484375 430.953125 271.566406 C 432.15625 271.644531 433.351562 271.808594 434.53125 272.058594 C 435.714844 272.308594 436.871094 272.640625 438.007812 273.054688 C 439.140625 273.472656 440.238281 273.96875 441.300781 274.542969 C 442.363281 275.117188 443.378906 275.761719 444.351562 276.484375 C 444.691406 276.761719 445.074219 276.964844 445.5 277.089844 C 445.925781 277.21875 446.359375 277.253906 446.796875 277.207031 C 447.238281 277.15625 447.652344 277.023438 448.039062 276.808594 C 448.421875 276.589844 448.753906 276.308594 449.023438 275.957031 C 449.296875 275.609375 449.488281 275.21875 449.605469 274.792969 C 449.71875 274.363281 449.746094 273.933594 449.6875 273.492188 C 449.625 273.054688 449.484375 272.644531 449.257812 272.265625 C 449.03125 271.882812 448.742188 271.5625 448.382812 271.296875 C 445.117188 268.75 441.476562 266.957031 437.464844 265.917969 C 438.046875 265.28125 438.667969 264.691406 439.335938 264.140625 C 440 263.59375 440.699219 263.09375 441.433594 262.644531 C 442.167969 262.195312 442.933594 261.796875 443.722656 261.457031 C 444.515625 261.113281 445.328125 260.828125 446.15625 260.601562 C 446.988281 260.375 447.832031 260.207031 448.6875 260.097656 C 449.542969 259.988281 450.398438 259.9375 451.261719 259.953125 C 452.125 259.964844 452.980469 260.035156 453.832031 260.167969 C 454.683594 260.300781 455.523438 260.492188 456.347656 260.746094 C 457.171875 260.996094 457.972656 261.304688 458.753906 261.667969 C 459.535156 262.03125 460.289062 262.449219 461.011719 262.917969 C 461.734375 263.390625 462.417969 263.90625 463.066406 264.472656 C 463.71875 265.042969 464.324219 265.652344 464.886719 266.304688 C 465.449219 266.957031 465.964844 267.644531 466.429688 268.367188 C 466.898438 269.09375 467.308594 269.847656 467.671875 270.628906 C 468.03125 271.414062 468.332031 272.21875 468.582031 273.042969 C 468.828125 273.871094 469.015625 274.710938 469.144531 275.5625 C 469.203125 275.949219 469.324219 276.316406 469.515625 276.660156 C 469.707031 277.003906 469.949219 277.304688 470.246094 277.5625 C 470.542969 277.816406 470.878906 278.015625 471.246094 278.152344 C 471.613281 278.289062 471.996094 278.355469 472.386719 278.359375 C 472.550781 278.359375 472.71875 278.34375 472.882812 278.320312 C 473.3125 278.257812 473.714844 278.113281 474.085938 277.886719 C 474.460938 277.664062 474.777344 277.375 475.035156 277.023438 C 475.292969 276.671875 475.472656 276.285156 475.578125 275.863281 C 475.683594 275.441406 475.703125 275.015625 475.640625 274.582031 C 475.351562 272.664062 474.84375 270.800781 474.121094 268.996094 C 474.964844 268.316406 475.886719 267.773438 476.894531 267.371094 C 477.902344 266.96875 478.945312 266.726562 480.027344 266.640625 C 481.105469 266.554688 482.175781 266.628906 483.234375 266.867188 C 484.292969 267.105469 485.289062 267.496094 486.230469 268.039062 C 487.167969 268.578125 488.007812 269.25 488.742188 270.042969 C 489.480469 270.839844 490.082031 271.726562 490.550781 272.703125 C 491.019531 273.683594 491.332031 274.707031 491.488281 275.78125 C 491.644531 276.851562 491.636719 277.925781 491.46875 278.996094 C 491.433594 279.226562 491.421875 279.457031 491.433594 279.6875 C 491.445312 279.917969 491.484375 280.148438 491.542969 280.371094 C 491.605469 280.59375 491.6875 280.808594 491.796875 281.015625 C 491.902344 281.222656 492.027344 281.414062 492.175781 281.59375 C 492.324219 281.773438 492.488281 281.933594 492.671875 282.078125 C 492.851562 282.222656 493.046875 282.347656 493.253906 282.449219 C 493.460938 282.554688 493.679688 282.632812 493.902344 282.691406 C 494.128906 282.746094 494.355469 282.78125 494.589844 282.789062 C 495.695312 282.832031 496.792969 282.964844 497.878906 283.195312 C 498.964844 283.425781 500.023438 283.742188 501.054688 284.152344 C 502.085938 284.558594 503.074219 285.054688 504.023438 285.628906 C 504.96875 286.207031 505.859375 286.859375 506.699219 287.589844 C 507.535156 288.316406 508.300781 289.109375 509.003906 289.96875 C 509.707031 290.828125 510.328125 291.742188 510.875 292.707031 C 511.421875 293.671875 511.882812 294.675781 512.257812 295.71875 C 512.632812 296.765625 512.917969 297.832031 513.113281 298.925781 C 513.304688 300.015625 513.40625 301.117188 513.414062 302.226562 C 513.421875 303.335938 513.332031 304.4375 513.152344 305.53125 C 512.972656 306.625 512.703125 307.695312 512.339844 308.746094 C 511.976562 309.792969 511.527344 310.804688 510.992188 311.773438 C 510.460938 312.746094 509.847656 313.667969 509.15625 314.535156 C 508.464844 315.402344 507.707031 316.207031 506.878906 316.945312 C 506.050781 317.683594 505.167969 318.347656 504.226562 318.9375 C 503.289062 319.523438 502.304688 320.03125 501.277344 320.453125 C 501.148438 320.308594 501.019531 320.164062 500.890625 320.027344 C 500.480469 319.613281 500.035156 319.234375 499.558594 318.894531 C 499.082031 318.554688 498.578125 318.253906 498.050781 318 C 497.523438 317.746094 496.976562 317.535156 496.414062 317.375 C 495.851562 317.210938 495.277344 317.097656 494.695312 317.03125 C 494.113281 316.96875 493.53125 316.953125 492.945312 316.988281 C 492.359375 317.019531 491.78125 317.105469 491.210938 317.238281 C 490.640625 317.371094 490.082031 317.550781 489.542969 317.777344 C 489.003906 318.003906 488.484375 318.277344 487.992188 318.589844 C 487.628906 318.828125 487.324219 319.121094 487.082031 319.476562 C 486.835938 319.832031 486.664062 320.222656 486.574219 320.644531 C 486.480469 321.066406 486.472656 321.488281 486.546875 321.914062 C 486.621094 322.339844 486.773438 322.734375 487.003906 323.101562 C 487.234375 323.464844 487.527344 323.773438 487.878906 324.023438 C 488.230469 324.273438 488.617188 324.449219 489.039062 324.546875 C 489.460938 324.644531 489.882812 324.65625 490.308594 324.589844 C 490.734375 324.519531 491.132812 324.371094 491.5 324.144531 C 491.867188 323.914062 492.261719 323.75 492.6875 323.652344 C 493.109375 323.554688 493.539062 323.53125 493.96875 323.578125 C 494.398438 323.625 494.8125 323.742188 495.203125 323.933594 C 495.59375 324.121094 495.945312 324.367188 496.25 324.675781 C 496.558594 324.984375 496.804688 325.332031 496.992188 325.722656 C 497.179688 326.117188 497.296875 326.527344 497.34375 326.957031 C 497.394531 327.390625 497.367188 327.816406 497.269531 328.242188 C 497.171875 328.664062 497.003906 329.058594 496.773438 329.425781 C 496.539062 329.792969 496.386719 330.191406 496.3125 330.621094 C 496.238281 331.050781 496.25 331.476562 496.34375 331.902344 C 496.441406 332.328125 496.613281 332.71875 496.867188 333.074219 C 497.117188 333.429688 497.425781 333.722656 497.792969 333.957031 C 498.164062 334.1875 498.5625 334.34375 498.992188 334.417969 C 499.417969 334.492188 499.847656 334.480469 500.273438 334.382812 C 500.695312 334.289062 501.085938 334.113281 501.441406 333.863281 C 501.796875 333.613281 502.09375 333.304688 502.324219 332.933594 C 502.933594 331.976562 503.375 330.941406 503.644531 329.839844 C 503.914062 328.734375 504 327.613281 503.902344 326.480469 C 506.699219 325.328125 509.21875 323.734375 511.460938 321.703125 C 512.207031 322.347656 512.898438 323.050781 513.53125 323.808594 C 514.164062 324.566406 514.734375 325.371094 515.238281 326.222656 C 515.742188 327.070312 516.171875 327.957031 516.535156 328.875 C 516.894531 329.796875 517.179688 330.738281 517.386719 331.703125 C 517.597656 332.671875 517.726562 333.648438 517.777344 334.632812 C 517.828125 335.621094 517.800781 336.605469 517.695312 337.585938 C 517.585938 338.570312 517.398438 339.535156 517.136719 340.488281 C 516.871094 341.441406 516.535156 342.363281 516.121094 343.261719 Z M 472.058594 311.335938 C 471.898438 311.742188 471.671875 312.101562 471.367188 312.417969 C 471.066406 312.730469 470.71875 312.976562 470.320312 313.152344 C 469.917969 313.328125 469.503906 313.417969 469.066406 313.429688 C 468.632812 313.4375 468.210938 313.363281 467.804688 313.207031 C 464.4375 311.894531 461.347656 310.105469 458.535156 307.839844 C 455.71875 305.574219 453.3125 302.9375 451.308594 299.929688 C 450.207031 300.574219 449.0625 301.144531 447.882812 301.632812 C 446.703125 302.125 445.492188 302.535156 444.257812 302.863281 C 443.019531 303.1875 441.769531 303.433594 440.5 303.589844 C 439.230469 303.75 437.957031 303.820312 436.679688 303.808594 C 435.398438 303.792969 434.128906 303.695312 432.863281 303.507812 C 431.597656 303.324219 430.351562 303.054688 429.121094 302.699219 C 427.890625 302.347656 426.691406 301.910156 425.523438 301.394531 C 424.351562 300.878906 423.222656 300.285156 422.132812 299.617188 C 421.761719 299.390625 421.445312 299.097656 421.191406 298.746094 C 420.933594 298.394531 420.753906 298.003906 420.652344 297.578125 C 420.554688 297.15625 420.535156 296.726562 420.605469 296.296875 C 420.675781 295.867188 420.824219 295.464844 421.050781 295.09375 C 421.28125 294.71875 421.570312 294.40625 421.925781 294.152344 C 422.277344 293.894531 422.667969 293.714844 423.089844 293.617188 C 423.515625 293.515625 423.941406 293.5 424.375 293.566406 C 424.804688 293.636719 425.207031 293.785156 425.578125 294.015625 C 426.253906 294.425781 426.949219 294.800781 427.664062 295.140625 C 428.378906 295.476562 429.109375 295.777344 429.859375 296.035156 C 430.605469 296.292969 431.367188 296.507812 432.136719 296.683594 C 432.910156 296.859375 433.6875 296.992188 434.472656 297.085938 C 435.257812 297.175781 436.046875 297.226562 436.839844 297.230469 C 437.628906 297.234375 438.417969 297.199219 439.207031 297.117188 C 439.992188 297.039062 440.773438 296.917969 441.546875 296.75 C 442.320312 296.585938 443.082031 296.382812 443.835938 296.132812 C 444.585938 295.886719 445.324219 295.597656 446.042969 295.269531 C 446.761719 294.945312 447.464844 294.578125 448.144531 294.175781 C 448.824219 293.773438 449.480469 293.332031 450.113281 292.859375 C 450.746094 292.382812 451.351562 291.875 451.929688 291.335938 C 452.507812 290.796875 453.054688 290.226562 453.570312 289.625 C 454.085938 289.027344 454.570312 288.402344 455.019531 287.75 C 455.464844 287.097656 455.878906 286.421875 456.253906 285.726562 C 456.628906 285.027344 456.964844 284.3125 457.261719 283.582031 C 457.425781 283.175781 457.660156 282.820312 457.964844 282.511719 C 458.269531 282.199219 458.625 281.960938 459.023438 281.789062 C 459.425781 281.621094 459.84375 281.535156 460.28125 281.53125 C 460.714844 281.527344 461.132812 281.609375 461.539062 281.769531 C 461.941406 281.933594 462.300781 282.167969 462.609375 282.476562 C 462.917969 282.78125 463.160156 283.132812 463.328125 283.535156 C 463.5 283.9375 463.585938 284.355469 463.589844 284.789062 C 463.59375 285.226562 463.511719 285.644531 463.347656 286.046875 C 461.804688 289.847656 459.546875 293.15625 456.570312 295.976562 C 458.199219 298.496094 460.179688 300.707031 462.503906 302.601562 C 464.832031 304.496094 467.394531 305.992188 470.191406 307.078125 C 470.597656 307.238281 470.957031 307.46875 471.273438 307.769531 C 471.585938 308.070312 471.832031 308.421875 472.007812 308.820312 C 472.183594 309.21875 472.273438 309.636719 472.285156 310.074219 C 472.292969 310.507812 472.21875 310.929688 472.058594 311.335938 Z M 465.855469 350.957031 C 466.023438 351.359375 466.109375 351.777344 466.109375 352.214844 C 466.113281 352.648438 466.03125 353.070312 465.867188 353.472656 C 465.699219 353.875 465.464844 354.230469 465.15625 354.539062 C 464.851562 354.847656 464.496094 355.085938 464.09375 355.253906 C 463.042969 355.695312 462.058594 356.246094 461.136719 356.914062 C 460.214844 357.582031 459.378906 358.34375 458.632812 359.203125 C 457.886719 360.0625 457.25 360.996094 456.71875 362 C 456.1875 363.007812 455.777344 364.0625 455.492188 365.164062 C 457.375 365.132812 459.238281 365.3125 461.085938 365.703125 C 461.511719 365.792969 461.902344 365.960938 462.261719 366.207031 C 462.621094 366.453125 462.921875 366.761719 463.160156 367.125 C 463.398438 367.492188 463.558594 367.886719 463.636719 368.316406 C 463.71875 368.742188 463.710938 369.171875 463.621094 369.597656 C 463.53125 370.023438 463.363281 370.417969 463.117188 370.777344 C 462.871094 371.136719 462.566406 371.433594 462.199219 371.671875 C 461.835938 371.910156 461.4375 372.070312 461.011719 372.152344 C 460.582031 372.230469 460.15625 372.226562 459.726562 372.136719 C 458.105469 371.792969 456.46875 371.671875 454.816406 371.769531 C 453.160156 371.867188 451.550781 372.179688 449.980469 372.710938 C 448.410156 373.238281 446.9375 373.964844 445.5625 374.890625 C 444.1875 375.8125 442.957031 376.902344 441.875 378.15625 C 440.792969 379.410156 439.890625 380.785156 439.175781 382.277344 C 438.460938 383.773438 437.957031 385.335938 437.660156 386.964844 C 437.363281 388.597656 437.289062 390.238281 437.433594 391.886719 C 437.574219 393.539062 437.933594 395.140625 438.507812 396.695312 C 438.65625 397.105469 438.726562 397.527344 438.707031 397.964844 C 438.691406 398.398438 438.589844 398.816406 438.40625 399.210938 C 438.226562 399.609375 437.972656 399.953125 437.652344 400.25 C 437.332031 400.546875 436.964844 400.769531 436.554688 400.921875 C 436.148438 401.074219 435.722656 401.140625 435.289062 401.121094 C 434.851562 401.105469 434.433594 401.003906 434.039062 400.820312 C 433.644531 400.636719 433.296875 400.382812 433 400.0625 C 432.707031 399.742188 432.480469 399.375 432.332031 398.964844 C 432.035156 398.167969 431.78125 397.351562 431.570312 396.527344 C 431.359375 395.703125 431.1875 394.867188 431.0625 394.023438 C 430.933594 393.179688 430.851562 392.332031 430.808594 391.480469 C 430.769531 390.628906 430.773438 389.777344 430.816406 388.925781 C 430.863281 388.074219 430.953125 387.226562 431.085938 386.386719 C 431.21875 385.542969 431.390625 384.707031 431.609375 383.882812 C 431.828125 383.058594 432.085938 382.246094 432.386719 381.449219 C 432.683594 380.652344 433.023438 379.871094 433.402344 379.105469 C 433.785156 378.34375 434.199219 377.601562 434.65625 376.878906 C 435.109375 376.15625 435.601562 375.460938 436.128906 374.789062 C 436.652344 374.121094 437.210938 373.476562 437.804688 372.863281 C 438.394531 372.25 439.015625 371.664062 439.667969 371.113281 C 440.320312 370.5625 440.996094 370.046875 441.699219 369.566406 C 442.402344 369.082031 443.128906 368.636719 443.878906 368.230469 C 444.628906 367.824219 445.394531 367.453125 446.179688 367.125 C 446.96875 366.792969 447.769531 366.503906 448.585938 366.257812 C 448.820312 364.390625 449.289062 362.585938 450 360.847656 C 450.710938 359.105469 451.636719 357.488281 452.773438 355.988281 C 453.910156 354.492188 455.222656 353.167969 456.710938 352.019531 C 458.199219 350.867188 459.808594 349.929688 461.542969 349.207031 C 461.945312 349.035156 462.367188 348.949219 462.800781 348.945312 C 463.238281 348.941406 463.660156 349.023438 464.0625 349.1875 C 464.46875 349.351562 464.824219 349.589844 465.136719 349.894531 C 465.445312 350.203125 465.683594 350.554688 465.855469 350.957031 Z M 428.679688 365.640625 L 428.601562 365.640625 C 428.164062 365.632812 427.75 365.539062 427.351562 365.363281 C 426.953125 365.1875 426.601562 364.941406 426.300781 364.625 C 426 364.3125 425.769531 363.949219 425.613281 363.542969 C 425.457031 363.136719 425.382812 362.71875 425.394531 362.28125 C 425.40625 361.703125 425.390625 361.125 425.347656 360.546875 C 425.300781 359.972656 425.226562 359.398438 425.125 358.828125 C 425.019531 358.257812 424.890625 357.695312 424.730469 357.140625 C 424.570312 356.585938 424.382812 356.039062 424.167969 355.5 C 423.953125 354.964844 423.710938 354.4375 423.441406 353.925781 C 423.175781 353.414062 422.882812 352.914062 422.5625 352.433594 C 422.242188 351.949219 421.902344 351.484375 421.535156 351.035156 C 421.167969 350.585938 420.78125 350.15625 420.375 349.75 C 419.964844 349.339844 419.535156 348.953125 419.085938 348.585938 C 418.636719 348.21875 418.171875 347.878906 417.691406 347.558594 C 417.207031 347.242188 416.707031 346.949219 416.195312 346.679688 C 415.683594 346.410156 415.160156 346.167969 414.621094 345.953125 C 414.085938 345.738281 413.539062 345.550781 412.980469 345.390625 C 412.425781 345.230469 411.863281 345.101562 411.292969 344.996094 C 410.722656 344.894531 410.148438 344.820312 409.574219 344.777344 C 408.996094 344.730469 408.417969 344.714844 407.839844 344.730469 C 407.410156 344.734375 406.992188 344.65625 406.59375 344.496094 C 406.191406 344.335938 405.835938 344.105469 405.527344 343.804688 C 405.21875 343.503906 404.976562 343.15625 404.800781 342.761719 C 404.628906 342.367188 404.539062 341.953125 404.527344 341.519531 C 404.519531 341.089844 404.589844 340.671875 404.742188 340.269531 C 404.898438 339.867188 405.121094 339.507812 405.417969 339.195312 C 405.714844 338.878906 406.058594 338.632812 406.449219 338.453125 C 406.84375 338.273438 407.253906 338.175781 407.6875 338.160156 C 410.382812 338.105469 413.007812 338.496094 415.570312 339.335938 C 417.632812 336.65625 420.066406 334.378906 422.875 332.496094 C 425.679688 330.617188 428.714844 329.230469 431.976562 328.34375 C 432.03125 325.875 432.40625 323.453125 433.113281 321.085938 C 433.816406 318.714844 434.820312 316.480469 436.125 314.382812 C 436.351562 314 436.640625 313.671875 436.992188 313.40625 C 437.347656 313.140625 437.742188 312.953125 438.171875 312.847656 C 438.601562 312.738281 439.035156 312.71875 439.472656 312.789062 C 439.914062 312.855469 440.320312 313.007812 440.695312 313.242188 C 441.074219 313.476562 441.390625 313.773438 441.648438 314.136719 C 441.902344 314.496094 442.078125 314.894531 442.175781 315.328125 C 442.269531 315.761719 442.277344 316.195312 442.195312 316.632812 C 442.117188 317.070312 441.953125 317.472656 441.710938 317.84375 C 441.160156 318.726562 440.679688 319.644531 440.265625 320.597656 C 439.855469 321.550781 439.515625 322.53125 439.246094 323.535156 C 438.980469 324.539062 438.789062 325.558594 438.675781 326.59375 C 438.558594 327.625 438.519531 328.664062 438.558594 329.703125 C 438.597656 330.742188 438.714844 331.769531 438.910156 332.792969 C 439.101562 333.8125 439.367188 334.816406 439.710938 335.796875 C 440.050781 336.78125 440.464844 337.730469 440.949219 338.652344 C 441.433594 339.570312 441.980469 340.449219 442.59375 341.289062 C 442.878906 341.640625 443.082031 342.03125 443.203125 342.464844 C 443.324219 342.898438 443.355469 343.339844 443.296875 343.785156 C 443.238281 344.230469 443.09375 344.648438 442.863281 345.035156 C 442.632812 345.421875 442.335938 345.746094 441.972656 346.011719 C 441.609375 346.277344 441.207031 346.457031 440.765625 346.558594 C 440.328125 346.65625 439.886719 346.667969 439.445312 346.585938 C 439 346.503906 438.59375 346.339844 438.21875 346.089844 C 437.84375 345.839844 437.53125 345.527344 437.289062 345.148438 C 435.046875 342.078125 433.5 338.691406 432.65625 334.984375 C 430.515625 335.667969 428.507812 336.632812 426.632812 337.875 C 424.761719 339.113281 423.089844 340.585938 421.625 342.289062 C 422.84375 343.117188 423.972656 344.050781 425.015625 345.09375 C 426.148438 346.226562 427.15625 347.464844 428.039062 348.804688 C 428.921875 350.144531 429.660156 351.558594 430.257812 353.050781 C 430.855469 354.539062 431.296875 356.070312 431.582031 357.648438 C 431.871094 359.226562 431.996094 360.820312 431.964844 362.421875 C 431.953125 362.851562 431.863281 363.265625 431.695312 363.660156 C 431.523438 364.054688 431.285156 364.402344 430.976562 364.703125 C 430.671875 365.003906 430.316406 365.234375 429.921875 365.398438 C 429.523438 365.558594 429.109375 365.640625 428.679688 365.640625 Z M 428.679688 365.640625 " fill-opacity="1" fill-rule="nonzero"/><g fill="#ffffff" fill-opacity="1"><g transform="translate(108.858068, 540.885038)"><g><path d="M 33.703125 -1.828125 C 32.441406 -0.859375 30.835938 -0.1875 28.890625 0.1875 C 26.953125 0.570312 24.890625 0.765625 22.703125 0.765625 C 20.046875 0.765625 17.554688 0.3125 15.234375 -0.59375 C 12.921875 -1.5 10.898438 -2.878906 9.171875 -4.734375 C 7.441406 -6.597656 6.070312 -8.972656 5.0625 -11.859375 C 4.050781 -14.742188 3.546875 -18.164062 3.546875 -22.125 C 3.546875 -26.257812 4.101562 -29.769531 5.21875 -32.65625 C 6.332031 -35.539062 7.804688 -37.898438 9.640625 -39.734375 C 11.472656 -41.578125 13.523438 -42.914062 15.796875 -43.75 C 18.078125 -44.59375 20.398438 -45.015625 22.765625 -45.015625 C 25.296875 -45.015625 27.359375 -44.878906 28.953125 -44.609375 C 30.554688 -44.335938 31.929688 -43.96875 33.078125 -43.5 L 31.8125 -38.890625 C 29.78125 -39.859375 26.890625 -40.34375 23.140625 -40.34375 C 21.410156 -40.34375 19.703125 -40.023438 18.015625 -39.390625 C 16.335938 -38.765625 14.832031 -37.734375 13.5 -36.296875 C 12.175781 -34.859375 11.113281 -32.976562 10.3125 -30.65625 C 9.507812 -28.34375 9.109375 -25.5 9.109375 -22.125 C 9.109375 -19.09375 9.484375 -16.4375 10.234375 -14.15625 C 10.992188 -11.882812 12.035156 -9.988281 13.359375 -8.46875 C 14.691406 -6.957031 16.253906 -5.820312 18.046875 -5.0625 C 19.835938 -4.300781 21.789062 -3.921875 23.90625 -3.921875 C 25.800781 -3.921875 27.453125 -4.109375 28.859375 -4.484375 C 30.273438 -4.867188 31.46875 -5.351562 32.4375 -5.9375 Z M 33.703125 -1.828125 "/></g></g></g><g fill="#ffffff" fill-opacity="1"><g transform="translate(144.954953, 540.885038)"><g><path d="M 27.953125 -2.53125 C 26.679688 -1.519531 25.085938 -0.71875 23.171875 -0.125 C 21.253906 0.46875 19.222656 0.765625 17.078125 0.765625 C 14.671875 0.765625 12.582031 0.375 10.8125 -0.40625 C 9.039062 -1.1875 7.585938 -2.300781 6.453125 -3.75 C 5.316406 -5.207031 4.472656 -6.945312 3.921875 -8.96875 C 3.367188 -11 3.09375 -13.28125 3.09375 -15.8125 C 3.09375 -21.207031 4.296875 -25.316406 6.703125 -28.140625 C 9.109375 -30.960938 12.546875 -32.375 17.015625 -32.375 C 18.441406 -32.375 19.867188 -32.210938 21.296875 -31.890625 C 22.734375 -31.578125 24.019531 -30.976562 25.15625 -30.09375 C 26.300781 -29.207031 27.234375 -27.953125 27.953125 -26.328125 C 28.671875 -24.710938 29.03125 -22.578125 29.03125 -19.921875 C 29.03125 -18.523438 28.898438 -16.984375 28.640625 -15.296875 L 8.34375 -15.296875 C 8.34375 -13.441406 8.53125 -11.796875 8.90625 -10.359375 C 9.289062 -8.929688 9.882812 -7.722656 10.6875 -6.734375 C 11.488281 -5.742188 12.53125 -4.984375 13.8125 -4.453125 C 15.101562 -3.929688 16.675781 -3.671875 18.53125 -3.671875 C 19.957031 -3.671875 21.390625 -3.921875 22.828125 -4.421875 C 24.265625 -4.929688 25.335938 -5.523438 26.046875 -6.203125 Z M 17.078125 -27.953125 C 14.585938 -27.953125 12.59375 -27.296875 11.09375 -25.984375 C 9.601562 -24.679688 8.707031 -22.445312 8.40625 -19.28125 L 24.09375 -19.28125 C 24.09375 -22.488281 23.476562 -24.734375 22.25 -26.015625 C 21.03125 -27.304688 19.304688 -27.953125 17.078125 -27.953125 Z M 17.078125 -27.953125 "/></g></g></g><g fill="#ffffff" fill-opacity="1"><g transform="translate(177.069169, 540.885038)"><g><path d="M 19.796875 -26.75 C 18.523438 -27.164062 17.320312 -27.375 16.1875 -27.375 C 14.375 -27.375 12.941406 -26.878906 11.890625 -25.890625 C 10.835938 -24.898438 10.179688 -23.644531 9.921875 -22.125 L 9.921875 0 L 4.875 0 L 4.875 -31.609375 L 8.40625 -31.609375 L 9.359375 -27.765625 L 9.609375 -27.765625 C 10.410156 -29.191406 11.367188 -30.296875 12.484375 -31.078125 C 13.609375 -31.859375 15.03125 -32.25 16.75 -32.25 C 17.976562 -32.25 19.351562 -32.035156 20.875 -31.609375 Z M 19.796875 -26.75 "/></g></g></g><g fill="#ffffff" fill-opacity="1"><g transform="translate(198.562948, 540.885038)"><g><path d="M 27.953125 -2.53125 C 26.679688 -1.519531 25.085938 -0.71875 23.171875 -0.125 C 21.253906 0.46875 19.222656 0.765625 17.078125 0.765625 C 14.671875 0.765625 12.582031 0.375 10.8125 -0.40625 C 9.039062 -1.1875 7.585938 -2.300781 6.453125 -3.75 C 5.316406 -5.207031 4.472656 -6.945312 3.921875 -8.96875 C 3.367188 -11 3.09375 -13.28125 3.09375 -15.8125 C 3.09375 -21.207031 4.296875 -25.316406 6.703125 -28.140625 C 9.109375 -30.960938 12.546875 -32.375 17.015625 -32.375 C 18.441406 -32.375 19.867188 -32.210938 21.296875 -31.890625 C 22.734375 -31.578125 24.019531 -30.976562 25.15625 -30.09375 C 26.300781 -29.207031 27.234375 -27.953125 27.953125 -26.328125 C 28.671875 -24.710938 29.03125 -22.578125 29.03125 -19.921875 C 29.03125 -18.523438 28.898438 -16.984375 28.640625 -15.296875 L 8.34375 -15.296875 C 8.34375 -13.441406 8.53125 -11.796875 8.90625 -10.359375 C 9.289062 -8.929688 9.882812 -7.722656 10.6875 -6.734375 C 11.488281 -5.742188 12.53125 -4.984375 13.8125 -4.453125 C 15.101562 -3.929688 16.675781 -3.671875 18.53125 -3.671875 C 19.957031 -3.671875 21.390625 -3.921875 22.828125 -4.421875 C 24.265625 -4.929688 25.335938 -5.523438 26.046875 -6.203125 Z M 17.078125 -27.953125 C 14.585938 -27.953125 12.59375 -27.296875 11.09375 -25.984375 C 9.601562 -24.679688 8.707031 -22.445312 8.40625 -19.28125 L 24.09375 -19.28125 C 24.09375 -22.488281 23.476562 -24.734375 22.25 -26.015625 C 21.03125 -27.304688 19.304688 -27.953125 17.078125 -27.953125 Z M 17.078125 -27.953125 "/></g></g></g><g fill="#ffffff" fill-opacity="1"><g transform="translate(230.677164, 540.885038)"><g><path d="M 4.875 -44.265625 L 9.921875 -44.265625 L 9.921875 -28.515625 L 10.1875 -28.515625 C 11.15625 -29.742188 12.382812 -30.691406 13.875 -31.359375 C 15.375 -32.035156 17.007812 -32.375 18.78125 -32.375 C 22.875 -32.375 25.941406 -31.066406 27.984375 -28.453125 C 30.023438 -25.835938 31.046875 -21.789062 31.046875 -16.3125 C 31.046875 -10.789062 29.695312 -6.597656 27 -3.734375 C 24.300781 -0.867188 20.507812 0.5625 15.625 0.5625 C 13.257812 0.5625 11.117188 0.3125 9.203125 -0.1875 C 7.285156 -0.695312 5.84375 -1.242188 4.875 -1.828125 Z M 17.890625 -27.953125 C 15.785156 -27.953125 14.078125 -27.359375 12.765625 -26.171875 C 11.460938 -24.992188 10.515625 -23.332031 9.921875 -21.1875 L 9.921875 -5.25 C 10.722656 -4.78125 11.691406 -4.429688 12.828125 -4.203125 C 13.972656 -3.972656 15.15625 -3.859375 16.375 -3.859375 C 19.238281 -3.859375 21.523438 -4.867188 23.234375 -6.890625 C 24.941406 -8.910156 25.796875 -12.070312 25.796875 -16.375 C 25.796875 -18.019531 25.648438 -19.554688 25.359375 -20.984375 C 25.066406 -22.421875 24.601562 -23.644531 23.96875 -24.65625 C 23.332031 -25.664062 22.519531 -26.46875 21.53125 -27.0625 C 20.539062 -27.65625 19.328125 -27.953125 17.890625 -27.953125 Z M 17.890625 -27.953125 "/></g></g></g><g fill="#ffffff" fill-opacity="1"><g transform="translate(264.814341, 540.885038)"><g><path d="M 19.796875 -26.75 C 18.523438 -27.164062 17.320312 -27.375 16.1875 -27.375 C 14.375 -27.375 12.941406 -26.878906 11.890625 -25.890625 C 10.835938 -24.898438 10.179688 -23.644531 9.921875 -22.125 L 9.921875 0 L 4.875 0 L 4.875 -31.609375 L 8.40625 -31.609375 L 9.359375 -27.765625 L 9.609375 -27.765625 C 10.410156 -29.191406 11.367188 -30.296875 12.484375 -31.078125 C 13.609375 -31.859375 15.03125 -32.25 16.75 -32.25 C 17.976562 -32.25 19.351562 -32.035156 20.875 -31.609375 Z M 19.796875 -26.75 "/></g></g></g><g fill="#ffffff" fill-opacity="1"><g transform="translate(286.30812, 540.885038)"><g><path d="M 4.359375 -29.28125 C 5.960938 -30.25 7.828125 -30.960938 9.953125 -31.421875 C 12.085938 -31.890625 14.3125 -32.125 16.625 -32.125 C 18.820312 -32.125 20.582031 -31.828125 21.90625 -31.234375 C 23.238281 -30.648438 24.25 -29.878906 24.9375 -28.921875 C 25.632812 -27.972656 26.097656 -26.929688 26.328125 -25.796875 C 26.566406 -24.660156 26.6875 -23.523438 26.6875 -22.390625 C 26.6875 -19.859375 26.625 -17.390625 26.5 -14.984375 C 26.375 -12.578125 26.3125 -10.300781 26.3125 -8.15625 C 26.3125 -6.59375 26.375 -5.113281 26.5 -3.71875 C 26.625 -2.332031 26.851562 -1.050781 27.1875 0.125 L 23.453125 0.125 L 22.125 -4.296875 L 21.8125 -4.296875 C 21.4375 -3.710938 20.960938 -3.132812 20.390625 -2.5625 C 19.828125 -1.988281 19.144531 -1.476562 18.34375 -1.03125 C 17.539062 -0.59375 16.609375 -0.226562 15.546875 0.0625 C 14.492188 0.351562 13.296875 0.5 11.953125 0.5 C 10.597656 0.5 9.34375 0.289062 8.1875 -0.125 C 7.03125 -0.550781 6.03125 -1.148438 5.1875 -1.921875 C 4.34375 -2.703125 3.675781 -3.640625 3.1875 -4.734375 C 2.707031 -5.835938 2.46875 -7.082031 2.46875 -8.46875 C 2.46875 -10.320312 2.847656 -11.867188 3.609375 -13.109375 C 4.367188 -14.359375 5.429688 -15.351562 6.796875 -16.09375 C 8.171875 -16.832031 9.816406 -17.359375 11.734375 -17.671875 C 13.648438 -17.984375 15.765625 -18.140625 18.078125 -18.140625 C 18.671875 -18.140625 19.25 -18.140625 19.8125 -18.140625 C 20.382812 -18.140625 20.96875 -18.097656 21.5625 -18.015625 C 21.6875 -19.285156 21.75 -20.425781 21.75 -21.4375 C 21.75 -23.757812 21.285156 -25.382812 20.359375 -26.3125 C 19.429688 -27.238281 17.742188 -27.703125 15.296875 -27.703125 C 14.585938 -27.703125 13.820312 -27.644531 13 -27.53125 C 12.175781 -27.425781 11.332031 -27.28125 10.46875 -27.09375 C 9.601562 -26.90625 8.78125 -26.671875 8 -26.390625 C 7.21875 -26.117188 6.53125 -25.816406 5.9375 -25.484375 Z M 13.34375 -3.921875 C 14.519531 -3.921875 15.570312 -4.078125 16.5 -4.390625 C 17.425781 -4.710938 18.226562 -5.113281 18.90625 -5.59375 C 19.582031 -6.082031 20.140625 -6.617188 20.578125 -7.203125 C 21.023438 -7.796875 21.351562 -8.367188 21.5625 -8.921875 L 21.5625 -14.171875 C 20.96875 -14.210938 20.363281 -14.242188 19.75 -14.265625 C 19.144531 -14.285156 18.546875 -14.296875 17.953125 -14.296875 C 16.648438 -14.296875 15.375 -14.21875 14.125 -14.0625 C 12.882812 -13.914062 11.789062 -13.640625 10.84375 -13.234375 C 9.894531 -12.835938 9.132812 -12.289062 8.5625 -11.59375 C 8 -10.90625 7.71875 -10.035156 7.71875 -8.984375 C 7.71875 -7.503906 8.242188 -6.289062 9.296875 -5.34375 C 10.347656 -4.394531 11.695312 -3.921875 13.34375 -3.921875 Z M 13.34375 -3.921875 "/></g></g></g><g fill="#ffffff" fill-opacity="1"><g transform="translate(317.663726, 540.885038)"><g><path d="M 10.5 -7.78125 C 10.5 -6.300781 10.75 -5.242188 11.25 -4.609375 C 11.757812 -3.984375 12.476562 -3.671875 13.40625 -3.671875 C 13.957031 -3.671875 14.546875 -3.710938 15.171875 -3.796875 C 15.804688 -3.878906 16.523438 -4.066406 17.328125 -4.359375 L 17.890625 -0.375 C 17.222656 -0.0390625 16.285156 0.226562 15.078125 0.4375 C 13.878906 0.65625 12.835938 0.765625 11.953125 0.765625 C 10.054688 0.765625 8.492188 0.226562 7.265625 -0.84375 C 6.046875 -1.925781 5.4375 -3.753906 5.4375 -6.328125 L 5.4375 -44.265625 L 10.5 -44.265625 Z M 10.5 -7.78125 "/></g></g></g><g fill="#ffffff" fill-opacity="1"><g transform="translate(336.123065, 540.885038)"><g><path d="M 44.515625 10.8125 C 43.503906 11.101562 42.515625 11.300781 41.546875 11.40625 C 40.578125 11.519531 39.609375 11.578125 38.640625 11.578125 C 36.523438 11.578125 34.46875 11.351562 32.46875 10.90625 C 30.46875 10.46875 28.53125 9.984375 26.65625 9.453125 C 24.78125 8.921875 22.976562 8.429688 21.25 7.984375 C 19.519531 7.546875 17.875 7.328125 16.3125 7.328125 C 15.300781 7.328125 14.332031 7.457031 13.40625 7.71875 L 13.40625 3.09375 C 14 2.96875 14.566406 2.863281 15.109375 2.78125 C 15.660156 2.695312 16.234375 2.65625 16.828125 2.65625 C 18.585938 2.65625 20.34375 2.875 22.09375 3.3125 C 23.84375 3.757812 25.625 4.242188 27.4375 4.765625 C 29.25 5.296875 31.101562 5.78125 33 6.21875 C 34.90625 6.664062 36.910156 6.890625 39.015625 6.890625 C 40.867188 6.890625 42.703125 6.679688 44.515625 6.265625 Z M 3.546875 -22.125 C 3.546875 -29.507812 5.101562 -35.171875 8.21875 -39.109375 C 11.34375 -43.046875 15.789062 -45.015625 21.5625 -45.015625 C 24.6875 -45.015625 27.382812 -44.46875 29.65625 -43.375 C 31.9375 -42.28125 33.820312 -40.734375 35.3125 -38.734375 C 36.8125 -36.734375 37.921875 -34.328125 38.640625 -31.515625 C 39.359375 -28.710938 39.71875 -25.582031 39.71875 -22.125 C 39.71875 -14.75 38.144531 -9.085938 35 -5.140625 C 31.863281 -1.203125 27.382812 0.765625 21.5625 0.765625 C 18.488281 0.765625 15.820312 0.21875 13.5625 -0.875 C 11.3125 -1.976562 9.4375 -3.53125 7.9375 -5.53125 C 6.4375 -7.53125 5.328125 -9.929688 4.609375 -12.734375 C 3.898438 -15.546875 3.546875 -18.675781 3.546875 -22.125 Z M 9.109375 -22.125 C 9.109375 -19.6875 9.347656 -17.367188 9.828125 -15.171875 C 10.316406 -12.984375 11.066406 -11.054688 12.078125 -9.390625 C 13.085938 -7.722656 14.382812 -6.394531 15.96875 -5.40625 C 17.550781 -4.414062 19.414062 -3.921875 21.5625 -3.921875 C 25.476562 -3.921875 28.550781 -5.40625 30.78125 -8.375 C 33.019531 -11.351562 34.140625 -15.9375 34.140625 -22.125 C 34.140625 -24.53125 33.894531 -26.835938 33.40625 -29.046875 C 32.925781 -31.265625 32.171875 -33.207031 31.140625 -34.875 C 30.109375 -36.539062 28.800781 -37.867188 27.21875 -38.859375 C 25.632812 -39.847656 23.75 -40.34375 21.5625 -40.34375 C 17.6875 -40.34375 14.640625 -38.851562 12.421875 -35.875 C 10.210938 -32.90625 9.109375 -28.320312 9.109375 -22.125 Z M 9.109375 -22.125 "/></g></g></g><g fill="#ffffff" fill-opacity="1"><g transform="translate(379.363459, 540.885038)"><g><path d="M 9.421875 -31.609375 L 9.421875 -13.59375 C 9.421875 -11.945312 9.515625 -10.5 9.703125 -9.25 C 9.890625 -8.007812 10.210938 -6.976562 10.671875 -6.15625 C 11.140625 -5.34375 11.773438 -4.722656 12.578125 -4.296875 C 13.378906 -3.878906 14.394531 -3.671875 15.625 -3.671875 C 16.757812 -3.671875 17.769531 -3.847656 18.65625 -4.203125 C 19.539062 -4.566406 20.328125 -5.0625 21.015625 -5.6875 C 21.710938 -6.320312 22.328125 -7.050781 22.859375 -7.875 C 23.390625 -8.695312 23.820312 -9.570312 24.15625 -10.5 L 24.15625 -31.609375 L 29.21875 -31.609375 L 29.21875 -8.984375 C 29.21875 -7.460938 29.269531 -5.890625 29.375 -4.265625 C 29.476562 -2.640625 29.65625 -1.21875 29.90625 0 L 26.4375 0 L 25.171875 -5 L 24.84375 -5 C 23.875 -3.351562 22.566406 -1.976562 20.921875 -0.875 C 19.285156 0.21875 17.203125 0.765625 14.671875 0.765625 C 12.984375 0.765625 11.492188 0.5625 10.203125 0.15625 C 8.921875 -0.238281 7.847656 -0.941406 6.984375 -1.953125 C 6.117188 -2.972656 5.460938 -4.332031 5.015625 -6.03125 C 4.578125 -7.738281 4.359375 -9.898438 4.359375 -12.515625 L 4.359375 -31.609375 Z M 9.421875 -31.609375 "/></g></g></g><g fill="#ffffff" fill-opacity="1"><g transform="translate(413.437418, 540.885038)"><g><path d="M 3.09375 -15.8125 C 3.09375 -21.164062 4.285156 -25.265625 6.671875 -28.109375 C 9.054688 -30.953125 12.484375 -32.375 16.953125 -32.375 C 19.304688 -32.375 21.359375 -31.984375 23.109375 -31.203125 C 24.859375 -30.421875 26.300781 -29.300781 27.4375 -27.84375 C 28.582031 -26.394531 29.425781 -24.648438 29.96875 -22.609375 C 30.519531 -20.566406 30.796875 -18.300781 30.796875 -15.8125 C 30.796875 -10.457031 29.601562 -6.351562 27.21875 -3.5 C 24.84375 -0.65625 21.421875 0.765625 16.953125 0.765625 C 14.585938 0.765625 12.53125 0.375 10.78125 -0.40625 C 9.03125 -1.1875 7.585938 -2.300781 6.453125 -3.75 C 5.316406 -5.207031 4.472656 -6.957031 3.921875 -9 C 3.367188 -11.050781 3.09375 -13.320312 3.09375 -15.8125 Z M 8.34375 -15.8125 C 8.34375 -14.207031 8.5 -12.664062 8.8125 -11.1875 C 9.132812 -9.71875 9.628906 -8.429688 10.296875 -7.328125 C 10.972656 -6.234375 11.859375 -5.347656 12.953125 -4.671875 C 14.054688 -4.003906 15.390625 -3.671875 16.953125 -3.671875 C 22.679688 -3.628906 25.546875 -7.675781 25.546875 -15.8125 C 25.546875 -17.457031 25.382812 -19.015625 25.0625 -20.484375 C 24.75 -21.960938 24.253906 -23.25 23.578125 -24.34375 C 22.910156 -25.4375 22.023438 -26.3125 20.921875 -26.96875 C 19.828125 -27.625 18.503906 -27.953125 16.953125 -27.953125 C 11.210938 -27.992188 8.34375 -23.945312 8.34375 -15.8125 Z M 8.34375 -15.8125 "/></g></g></g><g fill="#ffffff" fill-opacity="1"><g transform="translate(447.321724, 540.885038)"><g><path d="M 0.703125 -31.609375 L 5.625 -31.609375 L 5.625 -37.875 L 10.6875 -39.328125 L 10.6875 -31.609375 L 19.28125 -31.609375 L 19.28125 -27.1875 L 10.6875 -27.1875 L 10.6875 -9.671875 C 10.6875 -7.484375 10.957031 -5.9375 11.5 -5.03125 C 12.050781 -4.125 12.984375 -3.671875 14.296875 -3.671875 C 15.390625 -3.671875 16.316406 -3.785156 17.078125 -4.015625 C 17.835938 -4.242188 18.679688 -4.550781 19.609375 -4.9375 L 20.734375 -1.078125 C 19.597656 -0.523438 18.351562 -0.0820312 17 0.25 C 15.65625 0.59375 14.203125 0.765625 12.640625 0.765625 C 10.078125 0.765625 8.265625 0.0351562 7.203125 -1.421875 C 6.148438 -2.878906 5.625 -5.3125 5.625 -8.71875 L 5.625 -27.1875 L 0.703125 -27.1875 Z M 0.703125 -31.609375 "/></g></g></g><g fill="#ffffff" fill-opacity="1"><g transform="translate(468.752286, 540.885038)"><g><path d="M 5.9375 -31.609375 L 11 -31.609375 L 11 0 L 5.9375 0 Z M 4.875 -41.234375 C 4.875 -42.203125 5.195312 -43.03125 5.84375 -43.71875 C 6.5 -44.414062 7.332031 -44.765625 8.34375 -44.765625 C 9.351562 -44.765625 10.21875 -44.414062 10.9375 -43.71875 C 11.65625 -43.03125 12.015625 -42.203125 12.015625 -41.234375 C 12.015625 -40.265625 11.65625 -39.460938 10.9375 -38.828125 C 10.21875 -38.191406 9.351562 -37.875 8.34375 -37.875 C 7.332031 -37.875 6.5 -38.191406 5.84375 -38.828125 C 5.195312 -39.460938 4.875 -40.265625 4.875 -41.234375 Z M 4.875 -41.234375 "/></g></g></g><g fill="#ffffff" fill-opacity="1"><g transform="translate(485.694439, 540.885038)"><g><path d="M 27.953125 -2.53125 C 26.679688 -1.519531 25.085938 -0.71875 23.171875 -0.125 C 21.253906 0.46875 19.222656 0.765625 17.078125 0.765625 C 14.671875 0.765625 12.582031 0.375 10.8125 -0.40625 C 9.039062 -1.1875 7.585938 -2.300781 6.453125 -3.75 C 5.316406 -5.207031 4.472656 -6.945312 3.921875 -8.96875 C 3.367188 -11 3.09375 -13.28125 3.09375 -15.8125 C 3.09375 -21.207031 4.296875 -25.316406 6.703125 -28.140625 C 9.109375 -30.960938 12.546875 -32.375 17.015625 -32.375 C 18.441406 -32.375 19.867188 -32.210938 21.296875 -31.890625 C 22.734375 -31.578125 24.019531 -30.976562 25.15625 -30.09375 C 26.300781 -29.207031 27.234375 -27.953125 27.953125 -26.328125 C 28.671875 -24.710938 29.03125 -22.578125 29.03125 -19.921875 C 29.03125 -18.523438 28.898438 -16.984375 28.640625 -15.296875 L 8.34375 -15.296875 C 8.34375 -13.441406 8.53125 -11.796875 8.90625 -10.359375 C 9.289062 -8.929688 9.882812 -7.722656 10.6875 -6.734375 C 11.488281 -5.742188 12.53125 -4.984375 13.8125 -4.453125 C 15.101562 -3.929688 16.675781 -3.671875 18.53125 -3.671875 C 19.957031 -3.671875 21.390625 -3.921875 22.828125 -4.421875 C 24.265625 -4.929688 25.335938 -5.523438 26.046875 -6.203125 Z M 17.078125 -27.953125 C 14.585938 -27.953125 12.59375 -27.296875 11.09375 -25.984375 C 9.601562 -24.679688 8.707031 -22.445312 8.40625 -19.28125 L 24.09375 -19.28125 C 24.09375 -22.488281 23.476562 -24.734375 22.25 -26.015625 C 21.03125 -27.304688 19.304688 -27.953125 17.078125 -27.953125 Z M 17.078125 -27.953125 "/></g></g></g><g fill="#ffffff" fill-opacity="1"><g transform="translate(517.808656, 540.885038)"><g><path d="M 25.171875 0 L 25.171875 -18.015625 C 25.171875 -21.304688 24.695312 -23.785156 23.75 -25.453125 C 22.800781 -27.117188 21.0625 -27.953125 18.53125 -27.953125 C 16.289062 -27.953125 14.441406 -27.347656 12.984375 -26.140625 C 11.535156 -24.941406 10.515625 -23.4375 9.921875 -21.625 L 9.921875 0 L 4.875 0 L 4.875 -31.609375 L 8.40625 -31.609375 L 9.359375 -27.765625 L 9.609375 -27.765625 C 10.617188 -29.109375 11.976562 -30.210938 13.6875 -31.078125 C 15.394531 -31.941406 17.429688 -32.375 19.796875 -32.375 C 21.523438 -32.375 23.039062 -32.171875 24.34375 -31.765625 C 25.65625 -31.367188 26.738281 -30.664062 27.59375 -29.65625 C 28.457031 -28.644531 29.109375 -27.285156 29.546875 -25.578125 C 29.992188 -23.867188 30.21875 -21.707031 30.21875 -19.09375 L 30.21875 0 Z M 25.171875 0 "/></g></g></g><g fill="#ffffff" fill-opacity="1"><g transform="translate(552.38832, 540.885038)"><g><path d="M 0.703125 -31.609375 L 5.625 -31.609375 L 5.625 -37.875 L 10.6875 -39.328125 L 10.6875 -31.609375 L 19.28125 -31.609375 L 19.28125 -27.1875 L 10.6875 -27.1875 L 10.6875 -9.671875 C 10.6875 -7.484375 10.957031 -5.9375 11.5 -5.03125 C 12.050781 -4.125 12.984375 -3.671875 14.296875 -3.671875 C 15.390625 -3.671875 16.316406 -3.785156 17.078125 -4.015625 C 17.835938 -4.242188 18.679688 -4.550781 19.609375 -4.9375 L 20.734375 -1.078125 C 19.597656 -0.523438 18.351562 -0.0820312 17 0.25 C 15.65625 0.59375 14.203125 0.765625 12.640625 0.765625 C 10.078125 0.765625 8.265625 0.0351562 7.203125 -1.421875 C 6.148438 -2.878906 5.625 -5.3125 5.625 -8.71875 L 5.625 -27.1875 L 0.703125 -27.1875 Z M 0.703125 -31.609375 "/></g></g></g><g fill="#ffffff" fill-opacity="1"><g transform="translate(573.818881, 540.885038)"><g><path d="M 3.09375 -2.90625 C 3.09375 -4.039062 3.421875 -4.9375 4.078125 -5.59375 C 4.734375 -6.25 5.609375 -6.578125 6.703125 -6.578125 C 7.835938 -6.578125 8.742188 -6.25 9.421875 -5.59375 C 10.097656 -4.9375 10.4375 -4.039062 10.4375 -2.90625 C 10.4375 -1.8125 10.097656 -0.925781 9.421875 -0.25 C 8.742188 0.425781 7.835938 0.765625 6.703125 0.765625 C 5.609375 0.765625 4.734375 0.425781 4.078125 -0.25 C 3.421875 -0.925781 3.09375 -1.8125 3.09375 -2.90625 Z M 3.09375 -2.90625 "/></g></g></g><g fill="#ffffff" fill-opacity="1"><g transform="translate(587.347324, 540.885038)"><g><path d="M 26.4375 -2.09375 C 25.164062 -1.164062 23.664062 -0.457031 21.9375 0.03125 C 20.207031 0.519531 18.394531 0.765625 16.5 0.765625 C 14.0625 0.765625 12 0.375 10.3125 -0.40625 C 8.625 -1.1875 7.238281 -2.300781 6.15625 -3.75 C 5.082031 -5.207031 4.300781 -6.957031 3.8125 -9 C 3.332031 -11.050781 3.09375 -13.320312 3.09375 -15.8125 C 3.09375 -21.164062 4.273438 -25.265625 6.640625 -28.109375 C 9.003906 -30.953125 12.398438 -32.375 16.828125 -32.375 C 18.847656 -32.375 20.5625 -32.210938 21.96875 -31.890625 C 23.382812 -31.578125 24.660156 -31.128906 25.796875 -30.546875 L 24.34375 -26.171875 C 23.375 -26.722656 22.296875 -27.15625 21.109375 -27.46875 C 19.929688 -27.789062 18.671875 -27.953125 17.328125 -27.953125 C 11.335938 -27.953125 8.34375 -23.90625 8.34375 -15.8125 C 8.34375 -14.207031 8.5 -12.675781 8.8125 -11.21875 C 9.132812 -9.769531 9.664062 -8.484375 10.40625 -7.359375 C 11.144531 -6.242188 12.113281 -5.347656 13.3125 -4.671875 C 14.507812 -4.003906 15.992188 -3.671875 17.765625 -3.671875 C 19.285156 -3.671875 20.644531 -3.898438 21.84375 -4.359375 C 23.050781 -4.828125 24.03125 -5.351562 24.78125 -5.9375 Z M 26.4375 -2.09375 "/></g></g></g><g fill="#ffffff" fill-opacity="1"><g transform="translate(615.858177, 540.885038)"><g><path d="M 3.09375 -15.8125 C 3.09375 -21.164062 4.285156 -25.265625 6.671875 -28.109375 C 9.054688 -30.953125 12.484375 -32.375 16.953125 -32.375 C 19.304688 -32.375 21.359375 -31.984375 23.109375 -31.203125 C 24.859375 -30.421875 26.300781 -29.300781 27.4375 -27.84375 C 28.582031 -26.394531 29.425781 -24.648438 29.96875 -22.609375 C 30.519531 -20.566406 30.796875 -18.300781 30.796875 -15.8125 C 30.796875 -10.457031 29.601562 -6.351562 27.21875 -3.5 C 24.84375 -0.65625 21.421875 0.765625 16.953125 0.765625 C 14.585938 0.765625 12.53125 0.375 10.78125 -0.40625 C 9.03125 -1.1875 7.585938 -2.300781 6.453125 -3.75 C 5.316406 -5.207031 4.472656 -6.957031 3.921875 -9 C 3.367188 -11.050781 3.09375 -13.320312 3.09375 -15.8125 Z M 8.34375 -15.8125 C 8.34375 -14.207031 8.5 -12.664062 8.8125 -11.1875 C 9.132812 -9.71875 9.628906 -8.429688 10.296875 -7.328125 C 10.972656 -6.234375 11.859375 -5.347656 12.953125 -4.671875 C 14.054688 -4.003906 15.390625 -3.671875 16.953125 -3.671875 C 22.679688 -3.628906 25.546875 -7.675781 25.546875 -15.8125 C 25.546875 -17.457031 25.382812 -19.015625 25.0625 -20.484375 C 24.75 -21.960938 24.253906 -23.25 23.578125 -24.34375 C 22.910156 -25.4375 22.023438 -26.3125 20.921875 -26.96875 C 19.828125 -27.625 18.503906 -27.953125 16.953125 -27.953125 C 11.210938 -27.992188 8.34375 -23.945312 8.34375 -15.8125 Z M 8.34375 -15.8125 "/></g></g></g><g fill="#ffffff" fill-opacity="1"><g transform="translate(649.742483, 540.885038)"><g><path d="M 23.390625 0 L 23.390625 -17.890625 C 23.390625 -19.578125 23.316406 -21.039062 23.171875 -22.28125 C 23.023438 -23.53125 22.738281 -24.578125 22.3125 -25.421875 C 21.894531 -26.265625 21.296875 -26.894531 20.515625 -27.3125 C 19.734375 -27.738281 18.710938 -27.953125 17.453125 -27.953125 C 15.515625 -27.953125 13.898438 -27.359375 12.609375 -26.171875 C 11.328125 -24.992188 10.429688 -23.519531 9.921875 -21.75 L 9.921875 0 L 4.875 0 L 4.875 -31.609375 L 8.40625 -31.609375 L 9.359375 -27.765625 L 9.609375 -27.765625 C 10.742188 -29.109375 12.0625 -30.210938 13.5625 -31.078125 C 15.0625 -31.941406 17.007812 -32.375 19.40625 -32.375 C 21.4375 -32.375 23.09375 -31.984375 24.375 -31.203125 C 25.664062 -30.421875 26.664062 -29.0625 27.375 -27.125 C 28.34375 -28.769531 29.679688 -30.054688 31.390625 -30.984375 C 33.097656 -31.910156 35.03125 -32.375 37.1875 -32.375 C 38.957031 -32.375 40.453125 -32.171875 41.671875 -31.765625 C 42.890625 -31.367188 43.898438 -30.664062 44.703125 -29.65625 C 45.503906 -28.644531 46.082031 -27.273438 46.4375 -25.546875 C 46.800781 -23.816406 46.984375 -21.625 46.984375 -18.96875 L 46.984375 0 L 41.921875 0 L 41.921875 -19.03125 C 41.921875 -20.550781 41.847656 -21.867188 41.703125 -22.984375 C 41.554688 -24.097656 41.257812 -25.023438 40.8125 -25.765625 C 40.375 -26.503906 39.765625 -27.050781 38.984375 -27.40625 C 38.203125 -27.769531 37.179688 -27.953125 35.921875 -27.953125 C 33.804688 -27.953125 32.160156 -27.359375 30.984375 -26.171875 C 29.804688 -24.992188 28.960938 -23.3125 28.453125 -21.125 L 28.453125 0 Z M 23.390625 0 "/></g></g></g></svg>